<?xml version="1.0" encoding="utf-8"?>
<!-- Generator: Adobe Illustrator 26.5.0, SVG Export Plug-In . SVG Version: 6.00 Build 0)  -->
<svg version="1.1" id="icon-0" xmlns:svgjs="http://svgjs.dev/svgjs"
	 xmlns="http://www.w3.org/2000/svg" xmlns:xlink="http://www.w3.org/1999/xlink" x="0px" y="0px" viewBox="0 0 1547.2 251.2"
	 style="enable-background:new 0 0 1547.2 251.2;" xml:space="preserve">
<style type="text/css">
	.st0{fill:none;}
	.st1{fill:#FFFFFF;}
	.st2{fill:#FD8311;}
	.st3{display:none;fill:none;}
</style>
<rect class="st0" width="1547.2" height="251.2"/>
<g id="tight-bounds" transform="matrix(1,0,0,1,0.2399843428649433,-0.17110901643209786)">
	<g>
		<path class="st1" d="M264.7,131.4v-7.7h10.4V39.8h-10.4v-7.7h75.9v25h-12.9V40.5H292v37.4h24.2V67.8h9.4v28.6h-9.4V86.3H292v37.4
			h13.2v7.7H264.7z M403.1,133.1L403.1,133.1c-7,0-13-0.7-17.9-2.2c-4.9-1.5-9-3.8-12.1-7c-3.1-3.2-5.4-7.3-6.8-12.4
			s-2.1-11.1-2.1-18.2l0,0V39.8h-10.4v-7.7h37.7v7.7h-10.4v54.9c0,4.9,0.4,9.2,1.2,12.8c0.8,3.6,2.1,6.6,3.9,9
			c1.8,2.4,4.2,4.2,7.2,5.4c3,1.2,6.7,1.8,11.2,1.8l0,0c8.9,0,15.2-2.4,18.8-7.1c3.7-4.7,5.5-12,5.5-21.8l0,0v-55h-10.4v-7.7h30v7.7
			h-10.4v52.6c0,6.8-0.6,12.8-1.9,17.8c-1.3,5.1-3.3,9.3-6,12.7c-2.7,3.4-6.4,5.9-10.8,7.6C414.9,132.3,409.5,133.1,403.1,133.1z
			 M461.3,131.4v-7.7h10.4V39.8h-10.4v-7.7h50.5c4.3,0,8.3,0.5,11.9,1.6c3.5,1,6.6,2.6,9.1,4.7c2.5,2.1,4.5,4.8,5.8,8.1
			c1.4,3.3,2,7.1,2,11.5l0,0c0,6.8-2,12.4-5.9,16.8c-3.9,4.4-9.3,7.3-16,8.6l0,0l17.3,30.9c1.9,3.3,4,5.7,6.2,7.2
			c2.2,1.5,5,2.2,8.3,2.2l0,0h1v7.7h-11c-3,0-5.6-0.3-7.7-0.8c-2.1-0.5-4-1.3-5.6-2.4c-1.6-1.1-3.1-2.5-4.3-4.1
			c-1.3-1.6-2.4-3.6-3.6-5.9l0,0l-16.7-31.7h-14.2v37.3H499v7.7H461.3z M488.6,40.5v38h18.9c5,0,8.9-1.4,11.6-4.3
			c2.7-2.8,4.1-6.6,4.1-11.4l0,0v-6.7c0-4.7-1.4-8.5-4.1-11.4c-2.7-2.8-6.6-4.3-11.6-4.3l0,0H488.6z M560.7,131.4v-7.7H571V39.8
			h-10.4v-7.7h30.1l47.9,75.8h0.7V39.8h-10.4v-7.7h30v7.7h-10.4v91.6h-14.4L581,47.1h-0.7v76.7h10.4v7.7H560.7z M672.2,131.4v-7.7
			h10.4V39.8h-10.4v-7.7h37.7v7.7h-10.4v83.9h10.4v7.7H672.2z M743.3,131.4v-7.7h13.2V40.5h-22.2v16.6h-12.9v-25h87.2v25h-12.9V40.5
			h-22.2v83.2h13.2v7.7H743.3z M868.6,133.1L868.6,133.1c-7,0-13-0.7-17.9-2.2c-4.9-1.5-9-3.8-12.1-7c-3.1-3.2-5.4-7.3-6.8-12.4
			c-1.4-5-2.1-11.1-2.1-18.2l0,0V39.8h-10.4v-7.7h37.7v7.7h-10.4v54.9c0,4.9,0.4,9.2,1.2,12.8c0.8,3.6,2.1,6.6,3.9,9
			c1.8,2.4,4.2,4.2,7.2,5.4c3,1.2,6.7,1.8,11.2,1.8l0,0c8.9,0,15.2-2.4,18.8-7.1c3.7-4.7,5.5-12,5.5-21.8l0,0v-55h-10.4v-7.7h30v7.7
			h-10.4v52.6c0,6.8-0.6,12.8-1.9,17.8c-1.3,5.1-3.3,9.3-6,12.7c-2.7,3.4-6.4,5.9-10.8,7.6C880.3,132.3,874.9,133.1,868.6,133.1z
			 M926.7,131.4v-7.7h10.4V39.8h-10.4v-7.7h50.5c4.4,0,8.3,0.5,11.9,1.6c3.5,1,6.6,2.6,9.1,4.7c2.5,2.1,4.4,4.8,5.8,8.1
			c1.4,3.3,2,7.1,2,11.5l0,0c0,6.8-2,12.4-5.9,16.8c-3.9,4.4-9.3,7.3-16,8.6l0,0l17.4,30.9c1.9,3.3,4,5.7,6.2,7.2
			c2.2,1.5,5,2.2,8.3,2.2l0,0h1v7.7h-11c-3,0-5.6-0.3-7.7-0.8c-2.1-0.5-4-1.3-5.6-2.4c-1.6-1.1-3-2.5-4.3-4.1
			c-1.2-1.6-2.4-3.6-3.6-5.9l0,0l-16.6-31.7H954v37.3h10.4v7.7H926.7z M954,40.5v38h18.9c5,0,8.9-1.4,11.6-4.3c2.7-2.8,4-6.6,4-11.4
			l0,0v-6.7c0-4.7-1.3-8.5-4-11.4c-2.7-2.8-6.6-4.3-11.6-4.3l0,0H954z M1026.1,131.4v-7.7h10.4V39.8h-10.4v-7.7h75.9v25h-12.9V40.5
			h-35.7v35.3h24.2V65.7h9.4v28.6h-9.4V84.2h-24.2V123h37.1v-18.5h12.9v26.9H1026.1z"/>
		<path class="st2" d="M1110.4,131.4v-7.7h10.4V39.8h-10.4v-7.7h29.6l26.2,55.6h0.4l26.3-55.6h29v7.7h-10.4v83.9h10.4v7.7h-37.5
			v-7.7h10.4V47.8h-0.7l-7.1,16.8l-24.6,50.8l-24.5-50.8l-7.1-16.8h-0.7v75.9h10.4v7.7H1110.4z M1231,131.4v-7.7h7.4l31.6-91.6h16.2
			l31.6,91.6h7.4v7.7h-37.1v-7.7h12.2l-8-23.7h-36l-8,23.7h12.2v7.7H1231z M1274,45.5l-15.4,46.4h31.4l-15.4-46.4H1274z
			 M1334.3,131.4v-7.7h10.4V39.8h-10.4v-7.7h50.5c4.4,0,8.3,0.5,11.9,1.6c3.6,1,6.6,2.6,9.1,4.7c2.5,2.1,4.5,4.8,5.8,8.1
			c1.4,3.3,2.1,7.1,2.1,11.5l0,0c0,6.8-2,12.4-5.9,16.8c-3.9,4.4-9.3,7.3-16,8.6l0,0l17.4,30.9c1.9,3.3,4,5.7,6.2,7.2
			c2.2,1.5,5,2.2,8.3,2.2l0,0h1v7.7h-11c-3,0-5.6-0.3-7.8-0.8c-2.1-0.5-4-1.3-5.6-2.4c-1.6-1.1-3-2.5-4.3-4.1
			c-1.2-1.6-2.4-3.6-3.6-5.9l0,0l-16.6-31.7h-14.2v37.3h10.4v7.7H1334.3z M1361.6,40.5v38h18.9c5,0,8.9-1.4,11.6-4.3
			c2.7-2.8,4.1-6.6,4.1-11.4l0,0v-6.7c0-4.7-1.4-8.5-4.1-11.4c-2.7-2.8-6.6-4.3-11.6-4.3l0,0H1361.6z M1453.1,131.4v-7.7h13.2V40.5
			h-22.2v16.6h-12.9v-25h87.2v25h-12.9V40.5h-22.2v83.2h13.2v7.7H1453.1z"/>
		<g transform="matrix(1,0,0,1,0,39.23077231681735)">
			<g transform="matrix(1,0,0,1,0,0)">
				<path id="text-1" class="st1" d="M262.4,167v-46h30.2v6.5h-23.4v13.1H290v6.5h-20.8v13.3h24.3v6.5H262.4z M321.4,167.6h-0.3
					l-15-27.2h7.7l9.8,20.5l-4-0.2l8.9-20.3h7.3L321.4,167.6z M361.3,167.6L361.3,167.6c-3.1,0-5.7-0.6-7.9-1.8
					c-2.2-1.2-3.9-2.9-5.1-5c-1.2-2.1-1.8-4.6-1.8-7.3l0,0c0-2.6,0.7-5,2-7.1c1.3-2.1,3.1-3.8,5.4-5.1c2.3-1.3,4.8-1.9,7.5-1.9l0,0
					c3.5,0,6.5,1,8.8,3.1c2.3,2.1,3.9,5,4.7,8.7l0,0l-21.6,7.5l-1.5-3.8l17.3-6.2l-1.3,0.8c-0.5-1.3-1.3-2.5-2.4-3.4
					c-1.1-1-2.6-1.5-4.5-1.5l0,0c-1.5,0-2.9,0.4-4.1,1.1c-1.2,0.7-2.1,1.8-2.9,3c-0.7,1.3-1,2.8-1,4.5l0,0c0,1.8,0.4,3.3,1.1,4.6
					c0.7,1.3,1.8,2.4,3,3.1c1.3,0.8,2.7,1.1,4.3,1.1l0,0c1.1,0,2.2-0.2,3.3-0.6c1-0.4,2-1,3-1.6l0,0l3,4.8c-1.4,0.9-2.9,1.6-4.5,2.1
					C364.5,167.3,362.9,167.6,361.3,167.6z M389.9,140.4h5.8l0.6,7.6l-0.3-1c0.7-1.6,1.7-3,3-4.1s2.7-2,4.1-2.6
					c1.4-0.6,2.6-0.9,3.6-0.9l0,0l-0.3,6.5c-2-0.1-3.8,0.3-5.3,1.1c-1.5,0.9-2.7,2.1-3.5,3.5c-0.8,1.5-1.3,3.1-1.3,4.8l0,0V167h-6.5
					V140.4z M430.4,179.7H424l17.5-39.3h6L430.4,179.7z M435.7,163.8l-5,3.3l-12.9-26.7h7.3L435.7,163.8z M463.8,140.5v-11.7h6.5
					v11.7h7.1v5.1h-7.1V167h-6.5v-21.3h-4.7v-5.1H463.8z M498.6,167h-6.5v-49.2h6.3v28.7l-0.1-1.1c0.9-1.7,2.2-3.2,4.1-4.3
					c1.8-1.1,4-1.7,6.5-1.7l0,0c2.5,0,4.5,0.7,6.2,2.2c1.6,1.5,2.5,3.4,2.5,5.8l0,0V167h-6.5v-17.4c0-1.4-0.4-2.5-1.2-3.3
					c-0.8-0.9-1.9-1.3-3.5-1.4l0,0c-1.4,0-2.7,0.4-3.9,1.3c-1.2,0.9-2.1,2.1-2.8,3.5c-0.7,1.5-1,3.2-1,5.1l0,0V167z M535.2,167
					v-26.5h6.5V167H535.2z M534.9,130.9L534.9,130.9c0-1,0.4-1.9,1.2-2.5c0.8-0.7,1.7-1,2.6-1l0,0c1,0,1.8,0.3,2.6,1
					c0.8,0.7,1.1,1.5,1.1,2.5l0,0c0,1-0.4,1.8-1.1,2.5c-0.8,0.7-1.6,1-2.6,1l0,0c-0.9,0-1.8-0.3-2.6-1
					C535.3,132.8,534.9,131.9,534.9,130.9z M559.4,140.4h5.8l0.6,6.1l-0.3-0.8c0.9-1.9,2.3-3.4,4.1-4.6c1.9-1.2,4.1-1.7,6.6-1.7l0,0
					c2.5,0,4.6,0.7,6.2,2.2c1.6,1.5,2.5,3.4,2.5,5.8l0,0V167h-6.5v-17.4c0-1.4-0.4-2.5-1.2-3.3c-0.8-0.9-1.9-1.3-3.5-1.4l0,0
					c-1.4,0-2.7,0.4-3.9,1.3c-1.2,0.9-2.1,2-2.8,3.5c-0.7,1.5-1,3.2-1,5.1l0,0V167h-6.5V140.4z M615.5,180.1L615.5,180.1
					c-2.1,0-3.9-0.2-5.4-0.7c-1.5-0.5-2.9-1.1-4.1-1.9c-1.2-0.8-2.3-1.7-3.4-2.6l0,0l3.9-4.5c1.3,1.2,2.7,2.2,4.1,3
					c1.4,0.7,3,1.1,4.9,1.1l0,0c1.9,0,3.5-0.3,4.8-0.9c1.3-0.6,2.4-1.5,3.1-2.6c0.7-1.1,1.1-2.4,1.1-3.9l0,0l0.1-6.9l0.4,1.3
					c-0.7,1.7-2,3.2-4,4.4c-1.9,1.2-4.3,1.8-7.2,1.8l0,0c-2.4,0-4.6-0.6-6.7-1.8c-2-1.2-3.7-2.9-4.9-5s-1.8-4.5-1.8-7.2l0,0
					c0-2.8,0.6-5.2,1.9-7.4c1.3-2.1,3-3.8,5.1-5.1c2.1-1.2,4.4-1.9,6.8-1.9l0,0c2.4,0,4.5,0.5,6.3,1.4c1.9,0.9,3.3,2,4.2,3.4l0,0
					l-0.4,1.1l0.7-4.7h6v26.7c0,2.4-0.6,4.7-1.9,6.6c-1.3,2-3.1,3.5-5.3,4.7C621.4,179.5,618.7,180.1,615.5,180.1z M606.9,153.4
					L606.9,153.4c0,1.6,0.4,3.1,1.1,4.5c0.8,1.4,1.8,2.4,3.1,3.2c1.3,0.8,2.8,1.2,4.5,1.2l0,0c1.5,0,2.8-0.3,4-0.8
					c1.2-0.5,2.2-1.2,3-2.2c0.8-0.9,1.4-2,1.8-3.2l0,0v-5.5c-0.4-1.2-1-2.3-1.8-3.1c-0.8-0.9-1.9-1.5-3-2.1
					c-1.2-0.5-2.5-0.8-3.9-0.8l0,0c-1.6,0-3.1,0.4-4.5,1.1c-1.3,0.7-2.4,1.8-3.1,3.1C607.2,150.1,606.9,151.7,606.9,153.4z
					 M689.9,167v-15.1l-17-30.9h8.4l13.2,25.1l-2,0.1l13.1-25.2h8.3l-17.2,30.9V167H689.9z M719.1,153.4L719.1,153.4
					c0-2.7,0.6-5.1,1.9-7.2c1.3-2.1,3-3.8,5.3-5c2.2-1.2,4.8-1.8,7.7-1.8l0,0c2.9,0,5.5,0.6,7.7,1.8c2.2,1.2,3.9,2.9,5.1,5
					c1.2,2.1,1.8,4.5,1.8,7.2l0,0c0,2.7-0.6,5.1-1.8,7.2c-1.2,2.2-2.9,3.9-5.1,5.1c-2.2,1.3-4.8,1.9-7.7,1.9l0,0
					c-2.8,0-5.4-0.6-7.6-1.7c-2.2-1.1-4-2.8-5.3-4.9C719.8,158.8,719.1,156.3,719.1,153.4z M725.7,153.5L725.7,153.5
					c0,1.6,0.4,3.1,1.1,4.5c0.7,1.3,1.7,2.4,2.9,3.2c1.2,0.8,2.6,1.2,4.1,1.2l0,0c1.6,0,3-0.4,4.2-1.2c1.2-0.8,2.2-1.8,2.9-3.2
					c0.7-1.3,1.1-2.8,1.1-4.5l0,0c0-1.6-0.4-3.1-1.1-4.4c-0.7-1.3-1.7-2.4-2.9-3.2s-2.6-1.2-4.2-1.2l0,0c-1.6,0-3,0.4-4.2,1.2
					c-1.2,0.8-2.2,1.9-2.9,3.2C726.1,150.4,725.7,151.9,725.7,153.5z M772.4,168L772.4,168c-2.4,0-4.5-0.7-6-2.2
					c-1.6-1.5-2.4-3.4-2.5-5.7l0,0v-19.7h6.5v17.4c0.1,1.4,0.5,2.5,1.2,3.3c0.7,0.9,1.8,1.3,3.4,1.4l0,0c1.4,0,2.7-0.4,3.8-1.3
					c1.1-0.9,2-2,2.7-3.5c0.7-1.5,1-3.2,1-5.2l0,0v-12h6.5V167h-5.9l-0.5-6.1l0.3,1c-0.5,1.2-1.3,2.2-2.3,3.2c-1,1-2.2,1.7-3.6,2.2
					C775.5,167.8,774,168,772.4,168z M876.2,168.5H876l-35.4-35.2l2,0.6l0.2,32.9h-6.8v-47.4h0.3l35,35.2l-1.6-0.4l-0.1-33.3h6.7
					V168.5z M907.8,167.6L907.8,167.6c-3.1,0-5.7-0.6-7.9-1.8c-2.2-1.2-3.9-2.9-5.1-5c-1.2-2.1-1.8-4.6-1.8-7.3l0,0
					c0-2.6,0.7-5,2-7.1c1.3-2.1,3.1-3.8,5.4-5.1c2.3-1.3,4.8-1.9,7.5-1.9l0,0c3.5,0,6.5,1,8.8,3.1c2.3,2.1,3.9,5,4.7,8.7l0,0
					l-21.6,7.5l-1.5-3.8l17.3-6.2l-1.3,0.8c-0.5-1.3-1.3-2.5-2.4-3.4c-1.1-1-2.6-1.5-4.5-1.5l0,0c-1.5,0-2.9,0.4-4.1,1.1
					c-1.2,0.7-2.1,1.8-2.9,3c-0.7,1.3-1,2.8-1,4.5l0,0c0,1.8,0.4,3.3,1.1,4.6c0.7,1.3,1.8,2.4,3,3.1c1.3,0.8,2.7,1.1,4.3,1.1l0,0
					c1.1,0,2.2-0.2,3.3-0.6c1-0.4,2-1,3-1.6l0,0l3,4.8c-1.4,0.9-2.9,1.6-4.5,2.1C911,167.3,909.4,167.6,907.8,167.6z M948.8,167.6
					L948.8,167.6c-3.1,0-5.7-0.6-7.9-1.8c-2.2-1.2-3.9-2.9-5.1-5c-1.2-2.1-1.8-4.6-1.8-7.3l0,0c0-2.6,0.7-5,2-7.1
					c1.3-2.1,3.1-3.8,5.4-5.1c2.3-1.3,4.8-1.9,7.5-1.9l0,0c3.5,0,6.5,1,8.8,3.1c2.3,2.1,3.9,5,4.7,8.7l0,0l-21.6,7.5l-1.5-3.8
					l17.3-6.2l-1.3,0.8c-0.5-1.3-1.3-2.5-2.4-3.4c-1.1-1-2.6-1.5-4.5-1.5l0,0c-1.5,0-2.9,0.4-4.1,1.1c-1.2,0.7-2.2,1.8-2.9,3
					c-0.7,1.3-1.1,2.8-1.1,4.5l0,0c0,1.8,0.4,3.3,1.1,4.6c0.7,1.3,1.7,2.4,3,3.1c1.3,0.8,2.7,1.1,4.3,1.1l0,0c1.1,0,2.2-0.2,3.3-0.6
					c1-0.4,2-1,2.9-1.6l0,0l3,4.8c-1.4,0.9-2.9,1.6-4.5,2.1C952,167.3,950.4,167.6,948.8,167.6z M988.2,167.6L988.2,167.6
					c-2.5,0-4.7-0.6-6.7-1.7c-2-1.2-3.5-2.8-4.7-5c-1.1-2.2-1.7-4.7-1.7-7.5l0,0c0-3,0.6-5.5,1.8-7.6c1.2-2.1,2.9-3.7,5-4.8
					c2.1-1.1,4.5-1.7,7.1-1.7l0,0c2,0,4,0.4,5.8,1.2c1.8,0.8,3.3,2,4.3,3.5l0,0l-0.2,2.2v-28.4h6.5V167h-6.5v-6.3l0.7,1.7
					c-1.3,1.5-2.9,2.7-4.8,3.7C992.8,167.1,990.6,167.6,988.2,167.6z M990.3,162.1L990.3,162.1c1.5,0,2.8-0.3,3.9-0.8
					c1.1-0.5,2.1-1.2,2.9-2.2c0.8-0.9,1.4-2.1,1.7-3.3l0,0v-5.3c-0.3-1.2-0.9-2.2-1.7-3.1c-0.8-0.9-1.8-1.6-3-2.1
					c-1.2-0.5-2.5-0.8-3.9-0.8l0,0c-1.6,0-3,0.4-4.3,1.1c-1.3,0.7-2.3,1.8-3.1,3.1c-0.8,1.3-1.2,2.8-1.2,4.6l0,0
					c0,1.6,0.4,3.1,1.2,4.5c0.8,1.4,1.8,2.4,3.1,3.2C987.3,161.7,988.7,162.1,990.3,162.1z M1049.4,144L1049.4,144
					c0-3.2,0.6-6.2,1.8-9c1.2-2.8,2.9-5.3,5-7.5c2.2-2.2,4.6-3.9,7.5-5.2c2.8-1.2,5.9-1.9,9.1-1.9l0,0c3.2,0,6.2,0.6,9.1,1.9
					c2.8,1.3,5.3,3,7.5,5.2c2.2,2.2,3.9,4.7,5.1,7.5c1.2,2.8,1.8,5.8,1.8,9l0,0c0,3.3-0.6,6.3-1.8,9.1c-1.2,2.8-2.9,5.3-5.1,7.5
					c-2.2,2.2-4.7,3.8-7.5,5c-2.9,1.2-5.9,1.8-9.1,1.8l0,0c-3.3,0-6.3-0.6-9.1-1.8c-2.8-1.2-5.3-2.8-7.5-5c-2.2-2.1-3.8-4.6-5-7.5
					C1050,150.4,1049.4,147.3,1049.4,144z M1056.3,144L1056.3,144c0,2.4,0.4,4.6,1.3,6.6c0.9,2.1,2.1,3.8,3.6,5.4
					c1.5,1.5,3.3,2.7,5.3,3.6c2,0.9,4.2,1.3,6.5,1.3l0,0c2.3,0,4.4-0.4,6.4-1.3c2-0.9,3.7-2.1,5.2-3.6c1.5-1.5,2.7-3.3,3.5-5.4
					c0.8-2,1.3-4.2,1.3-6.6l0,0c0-2.4-0.4-4.6-1.3-6.6c-0.9-2-2.1-3.8-3.5-5.4c-1.5-1.6-3.3-2.8-5.3-3.7c-2-0.9-4.2-1.3-6.4-1.3l0,0
					c-2.4,0-4.5,0.4-6.5,1.3c-2,0.9-3.7,2.1-5.3,3.7c-1.5,1.6-2.7,3.4-3.5,5.4C1056.8,139.5,1056.3,141.7,1056.3,144z M1112.7,140.4
					h5.8l0.6,6.1l-0.3-0.8c0.9-1.9,2.3-3.4,4.1-4.6c1.9-1.2,4.1-1.7,6.6-1.7l0,0c2.5,0,4.5,0.7,6.2,2.2c1.6,1.5,2.5,3.4,2.5,5.8l0,0
					V167h-6.5v-17.4c0-1.4-0.4-2.5-1.2-3.3c-0.8-0.9-1.9-1.3-3.5-1.4l0,0c-1.4,0-2.7,0.4-3.9,1.3c-1.2,0.9-2.1,2-2.8,3.5
					c-0.7,1.5-1,3.2-1,5.1l0,0V167h-6.5V140.4z M1187,167h-6.7l20.2-47.8h0.4l20.2,47.8h-7.7l-14.7-37.3l4.9-3.2L1187,167z
					 M1190.7,155.5l2-5.8h16.3l2.3,5.8H1190.7z M1264.9,121h12.2c4.6,0,8.3,1,11,2.9c2.7,1.9,4,4.8,4,8.7l0,0c0,2.5-0.6,4.7-1.7,6.5
					c-1.2,1.8-2.8,3.2-4.8,4.2c-2,1-4.5,1.6-7.2,1.7l0,0l-1-3.6c3.3,0.1,6.2,0.6,8.7,1.7c2.6,1,4.6,2.5,6.1,4.3
					c1.5,1.8,2.3,4,2.3,6.6l0,0c0,2.3-0.4,4.3-1.3,6c-0.9,1.7-2,3-3.5,4.1c-1.5,1-3.1,1.8-4.9,2.3c-1.8,0.5-3.7,0.7-5.7,0.7l0,0h-14
					V121z M1271.6,140.9h6.7c2.4,0,4.1-0.7,5.2-2c1.1-1.4,1.6-3,1.6-4.8l0,0c0-2.3-0.7-3.9-2.1-5c-1.4-1-3.3-1.5-5.6-1.5l0,0h-5.8
					V140.9z M1271.6,160.7h6.9c1.6,0,3.1-0.2,4.5-0.7c1.3-0.5,2.4-1.2,3.2-2.2c0.8-1,1.2-2.2,1.2-3.8l0,0c0-1.7-0.5-3-1.4-4
					c-0.9-0.9-2.1-1.6-3.5-2c-1.4-0.4-2.9-0.6-4.4-0.6l0,0h-6.5V160.7z M1319.1,168L1319.1,168c-2.4,0-4.5-0.7-6-2.2
					c-1.6-1.5-2.4-3.4-2.5-5.7l0,0v-19.7h6.5v17.4c0.1,1.4,0.5,2.5,1.2,3.3c0.7,0.9,1.8,1.3,3.4,1.4l0,0c1.4,0,2.7-0.4,3.8-1.3
					c1.1-0.9,2-2,2.7-3.5c0.7-1.5,1-3.2,1-5.2l0,0v-12h6.5V167h-5.9l-0.5-6.1l0.3,1c-0.5,1.2-1.3,2.2-2.3,3.2c-1,1-2.2,1.7-3.6,2.2
					C1322.2,167.8,1320.7,168,1319.1,168z M1364.1,167.6L1364.1,167.6c-2.5,0-4.7-0.6-6.7-1.7c-2-1.2-3.5-2.8-4.7-5
					c-1.1-2.2-1.7-4.7-1.7-7.5l0,0c0-3,0.6-5.5,1.8-7.6c1.2-2.1,2.9-3.7,5-4.8c2.1-1.1,4.4-1.7,7.1-1.7l0,0c2,0,4,0.4,5.8,1.2
					c1.8,0.8,3.3,2,4.3,3.5l0,0l-0.2,2.2v-28.4h6.5V167h-6.5v-6.3l0.7,1.7c-1.3,1.5-2.9,2.7-4.8,3.7
					C1368.7,167.1,1366.6,167.6,1364.1,167.6z M1366.2,162.1L1366.2,162.1c1.5,0,2.8-0.3,3.9-0.8s2.1-1.2,2.9-2.2
					c0.8-0.9,1.4-2.1,1.7-3.3l0,0v-5.3c-0.3-1.2-0.9-2.2-1.7-3.1c-0.8-0.9-1.8-1.6-3-2.1s-2.5-0.8-3.9-0.8l0,0c-1.6,0-3,0.4-4.3,1.1
					c-1.3,0.7-2.3,1.8-3.1,3.1c-0.8,1.3-1.2,2.8-1.2,4.6l0,0c0,1.6,0.4,3.1,1.2,4.5c0.8,1.4,1.8,2.4,3.1,3.2
					C1363.2,161.7,1364.7,162.1,1366.2,162.1z M1411.9,180.1L1411.9,180.1c-2.1,0-3.9-0.2-5.4-0.7c-1.5-0.5-2.9-1.1-4.1-1.9
					c-1.2-0.8-2.3-1.7-3.4-2.6l0,0l3.9-4.5c1.3,1.2,2.7,2.2,4.1,3c1.4,0.7,3,1.1,4.9,1.1l0,0c1.9,0,3.5-0.3,4.8-0.9
					c1.3-0.6,2.4-1.5,3.1-2.6c0.7-1.1,1.1-2.4,1.1-3.9l0,0l0.1-6.9l0.4,1.3c-0.7,1.7-2,3.2-4,4.4c-1.9,1.2-4.3,1.8-7.2,1.8l0,0
					c-2.4,0-4.6-0.6-6.7-1.8c-2-1.2-3.7-2.9-4.9-5s-1.8-4.5-1.8-7.2l0,0c0-2.8,0.6-5.2,1.9-7.4c1.3-2.1,3-3.8,5.1-5.1
					c2.1-1.2,4.4-1.9,6.8-1.9l0,0c2.4,0,4.5,0.5,6.3,1.4c1.9,0.9,3.3,2,4.2,3.4l0,0l-0.4,1.1l0.7-4.7h6v26.7c0,2.4-0.6,4.7-1.9,6.6
					c-1.3,2-3.1,3.5-5.3,4.7C1417.7,179.5,1415,180.1,1411.9,180.1z M1403.2,153.4L1403.2,153.4c0,1.6,0.4,3.1,1.1,4.5
					s1.8,2.4,3.1,3.2c1.3,0.8,2.8,1.2,4.5,1.2l0,0c1.5,0,2.8-0.3,4-0.8c1.2-0.5,2.2-1.2,3-2.2c0.8-0.9,1.4-2,1.8-3.2l0,0v-5.5
					c-0.4-1.2-1-2.3-1.8-3.1c-0.8-0.9-1.9-1.5-3-2.1c-1.2-0.5-2.5-0.8-3.9-0.8l0,0c-1.6,0-3.1,0.4-4.5,1.1c-1.3,0.7-2.4,1.8-3.1,3.1
					S1403.2,151.7,1403.2,153.4z M1457.4,167.6L1457.4,167.6c-3.1,0-5.7-0.6-7.9-1.8c-2.2-1.2-3.9-2.9-5.1-5
					c-1.2-2.1-1.8-4.6-1.8-7.3l0,0c0-2.6,0.7-5,2-7.1c1.3-2.1,3.1-3.8,5.4-5.1c2.3-1.3,4.8-1.9,7.5-1.9l0,0c3.5,0,6.5,1,8.8,3.1
					c2.3,2.1,3.9,5,4.7,8.7l0,0l-21.6,7.5l-1.5-3.8l17.3-6.2l-1.3,0.8c-0.5-1.3-1.3-2.5-2.4-3.4c-1.1-1-2.6-1.5-4.5-1.5l0,0
					c-1.5,0-2.9,0.4-4.1,1.1c-1.2,0.7-2.2,1.8-2.9,3c-0.7,1.3-1.1,2.8-1.1,4.5l0,0c0,1.8,0.4,3.3,1.1,4.6c0.7,1.3,1.7,2.4,3,3.1
					c1.3,0.8,2.7,1.1,4.3,1.1l0,0c1.1,0,2.2-0.2,3.3-0.6c1-0.4,2-1,2.9-1.6l0,0l3,4.8c-1.4,0.9-2.9,1.6-4.5,2.1
					C1460.5,167.3,1458.9,167.6,1457.4,167.6z M1488.4,140.5v-11.7h6.5v11.7h7.1v5.1h-7.1V167h-6.5v-21.3h-4.7v-5.1H1488.4z
					 M1513.6,163.3L1513.6,163.3c0-1,0.4-1.9,1.1-2.6c0.7-0.7,1.6-1,2.5-1l0,0c0.8,0,1.6,0.3,2.4,1c0.7,0.7,1.1,1.6,1.1,2.6l0,0
					c0,1.1-0.4,2-1.1,2.6c-0.7,0.7-1.5,1-2.4,1l0,0c-0.9,0-1.8-0.3-2.5-1C1514,165.3,1513.6,164.4,1513.6,163.3L1513.6,163.3z"/>
			</g>
		</g>
	</g>
	<g>
		<g>
			<g>
				<path class="st1" d="M223.5,105.2H151V77.7c0-3.6-2.9-6.5-6.5-6.5h-26.2c-3.6,0-6.5,2.9-6.5,6.5v27.6h-9.3
					c-8.3,0-15.1,6.8-15.1,15.1v23.3h151.1v-23.3C238.6,112,231.8,105.2,223.5,105.2z M137.9,105.2h-13.2V84.2h13.2V105.2z
					 M166.8,135.8h-7.6c-2.4,0-4.3-1.9-4.3-4.3s1.9-4.3,4.3-4.3h7.6c2.4,0,4.3,1.9,4.3,4.3C171.2,133.8,169.2,135.8,166.8,135.8z"/>
				<path class="st1" d="M87.4,182.3v11.3v22.6c0,3.6,2.9,6.5,6.5,6.5c3.6,0,6.5-2.9,6.5-6.5v-7.8c0.7,0.1,1.4,0.2,2,0.2h56.2v-56.4
					H87.4V182.3z"/>
				<path class="st1" d="M167.4,208.7h56.2c0.7,0,1.4-0.1,2.1-0.2v7.8c0,3.6,2.9,6.5,6.5,6.5c3.6,0,6.5-2.9,6.5-6.5v-22.6v-11.3
					v-30.1h-71.2V208.7z"/>
				<path class="st1" d="M75.1,209.7h-9.2v-120h22.6c1.3,0,2.5-0.6,3.3-1.5c0.8-1,1.2-2.3,1-3.5l-8.6-52.3c-0.3-2.1-2.2-3.6-4.3-3.6
					H38.8c-2.1,0-3.9,1.5-4.3,3.6L26,84.7c-0.2,1.3,0.2,2.5,1,3.5c0.8,1,2,1.5,3.3,1.5h22.6v120h-9.2c-3.6,0-6.5,2.9-6.5,6.5
					c0,3.6,2.9,6.5,6.5,6.5h31.5c3.6,0,6.5-2.9,6.5-6.5C81.7,212.7,78.7,209.7,75.1,209.7z"/>
			</g>
		</g>
	</g>
	<rect x="25.9" y="28.7" class="st3" width="1494.8" height="194"/>
</g>
</svg>
