<svg xmlns="http://www.w3.org/2000/svg" version="1.1" xmlns:xlink="http://www.w3.org/1999/xlink" xmlns:svgjs="http://svgjs.dev/svgjs" width="2000" height="257" viewBox="0 0 2000 257"><g transform="matrix(1,0,0,1,-1.2120421356814859,0.8622557805393285)"><svg viewBox="0 0 396 51" data-background-color="#ffffff" preserveAspectRatio="xMidYMid meet" height="257" width="2000" xmlns="http://www.w3.org/2000/svg" xmlns:xlink="http://www.w3.org/1999/xlink"><defs></defs><g id="tight-bounds" transform="matrix(1,0,0,1,0.2399843428649433,-0.17110901643209786)"><svg viewBox="0 0 395.52 51.34221814019674" height="51.34221814019674" width="395.52"><g><svg viewBox="0 0 469.8641865487144 60.992793188840494" height="51.34221814019674" width="395.52"><g transform="matrix(1,0,0,1,74.34418654871439,1.0739203817620293)"><svg viewBox="0 0 395.52 58.844952425316436" height="58.844952425316436" width="395.52"><g><svg viewBox="0 0 395.52 58.844952425316436" height="58.844952425316436" width="395.52"><g><svg viewBox="0 0 395.52 31.738155515370696" height="31.738155515370696" width="395.52"><g transform="matrix(1,0,0,1,0,0)"><svg width="395.52" viewBox="2.450000047683716 -34.900001525878906 440.76995849609375 35.5" height="31.738155515370696" data-palette-color="#000000"><g class="undefined-text-0" data-fill-palette-color="primary" id="text-0"><path d="M2.45 0L2.45-2.7 6.1-2.7 6.1-32.2 2.45-32.2 2.45-34.9 29.15-34.9 29.15-26.1 24.6-26.1 24.6-31.95 12.05-31.95 12.05-18.8 20.55-18.8 20.55-22.35 23.85-22.35 23.85-12.3 20.55-12.3 20.55-15.85 12.05-15.85 12.05-2.7 16.7-2.7 16.7 0 2.45 0ZM51.1 0.6L51.1 0.6Q47.4 0.6 44.8-0.18 42.2-0.95 40.55-2.65 38.9-4.35 38.15-7 37.4-9.65 37.4-13.4L37.4-13.4 37.4-32.2 33.75-32.2 33.75-34.9 47-34.9 47-32.2 43.35-32.2 43.35-12.9Q43.35-10.3 43.77-8.4 44.2-6.5 45.15-5.23 46.1-3.95 47.67-3.33 49.25-2.7 51.6-2.7L51.6-2.7Q56.3-2.7 58.22-5.18 60.15-7.65 60.15-12.85L60.15-12.85 60.15-32.2 56.5-32.2 56.5-34.9 67.05-34.9 67.05-32.2 63.4-32.2 63.4-13.7Q63.4-10.1 62.72-7.43 62.05-4.75 60.6-2.95 59.15-1.15 56.8-0.28 54.45 0.6 51.1 0.6ZM71.55 0L71.55-2.7 75.19-2.7 75.19-32.2 71.55-32.2 71.55-34.9 89.3-34.9Q91.59-34.9 93.47-34.35 95.34-33.8 96.67-32.68 98-31.55 98.72-29.83 99.44-28.1 99.44-25.8L99.44-25.8Q99.44-22.2 97.37-19.88 95.3-17.55 91.75-16.85L91.75-16.85 97.84-6Q98.84-4.25 100.02-3.48 101.19-2.7 102.94-2.7L102.94-2.7 103.3-2.7 103.3 0 99.44 0Q97.84 0 96.72-0.28 95.59-0.55 94.75-1.13 93.89-1.7 93.25-2.58 92.59-3.45 92-4.65L92-4.65 86.14-15.8 81.14-15.8 81.14-2.7 84.8-2.7 84.8 0 71.55 0ZM81.14-31.95L81.14-18.6 87.8-18.6Q90.44-18.6 91.87-20.1 93.3-21.6 93.3-24.1L93.3-24.1 93.3-26.45Q93.3-28.95 91.87-30.45 90.44-31.95 87.8-31.95L87.8-31.95 81.14-31.95ZM106.49 0L106.49-2.7 110.14-2.7 110.14-32.2 106.49-32.2 106.49-34.9 117.09-34.9 133.94-8.25 134.19-8.25 134.19-32.2 130.54-32.2 130.54-34.9 141.09-34.9 141.09-32.2 137.44-32.2 137.44 0 132.39 0 113.64-29.65 113.39-29.65 113.39-2.7 117.04-2.7 117.04 0 106.49 0ZM145.69 0L145.69-2.7 149.34-2.7 149.34-32.2 145.69-32.2 145.69-34.9 158.94-34.9 158.94-32.2 155.29-32.2 155.29-2.7 158.94-2.7 158.94 0 145.69 0ZM170.69 0L170.69-2.7 175.34-2.7 175.34-31.95 167.54-31.95 167.54-26.1 162.99-26.1 162.99-34.9 193.64-34.9 193.64-26.1 189.09-26.1 189.09-31.95 181.29-31.95 181.29-2.7 185.94-2.7 185.94 0 170.69 0ZM214.74 0.6L214.74 0.6Q211.04 0.6 208.44-0.18 205.84-0.95 204.19-2.65 202.54-4.35 201.79-7 201.04-9.65 201.04-13.4L201.04-13.4 201.04-32.2 197.39-32.2 197.39-34.9 210.64-34.9 210.64-32.2 206.99-32.2 206.99-12.9Q206.99-10.3 207.41-8.4 207.84-6.5 208.79-5.23 209.74-3.95 211.31-3.33 212.89-2.7 215.24-2.7L215.24-2.7Q219.94-2.7 221.86-5.18 223.79-7.65 223.79-12.85L223.79-12.85 223.79-32.2 220.14-32.2 220.14-34.9 230.69-34.9 230.69-32.2 227.04-32.2 227.04-13.7Q227.04-10.1 226.36-7.43 225.69-4.75 224.24-2.95 222.79-1.15 220.44-0.28 218.09 0.6 214.74 0.6ZM235.18 0L235.18-2.7 238.83-2.7 238.83-32.2 235.18-32.2 235.18-34.9 252.93-34.9Q255.23-34.9 257.11-34.35 258.98-33.8 260.31-32.68 261.63-31.55 262.36-29.83 263.08-28.1 263.08-25.8L263.08-25.8Q263.08-22.2 261.01-19.88 258.93-17.55 255.38-16.85L255.38-16.85 261.48-6Q262.48-4.25 263.66-3.48 264.83-2.7 266.58-2.7L266.58-2.7 266.93-2.7 266.93 0 263.08 0Q261.48 0 260.36-0.28 259.23-0.55 258.38-1.13 257.53-1.7 256.88-2.58 256.23-3.45 255.63-4.65L255.63-4.65 249.78-15.8 244.78-15.8 244.78-2.7 248.43-2.7 248.43 0 235.18 0ZM244.78-31.95L244.78-18.6 251.43-18.6Q254.08-18.6 255.51-20.1 256.93-21.6 256.93-24.1L256.93-24.1 256.93-26.45Q256.93-28.95 255.51-30.45 254.08-31.95 251.43-31.95L251.43-31.95 244.78-31.95ZM270.13 0L270.13-2.7 273.78-2.7 273.78-32.2 270.13-32.2 270.13-34.9 296.83-34.9 296.83-26.1 292.28-26.1 292.28-31.95 279.73-31.95 279.73-19.55 288.23-19.55 288.23-23.1 291.53-23.1 291.53-13.05 288.23-13.05 288.23-16.6 279.73-16.6 279.73-2.95 292.78-2.95 292.78-9.45 297.33-9.45 297.33 0 270.13 0Z" fill="#000000" data-fill-palette-color="primary"></path><path d="M299.78 0L299.78-2.7 303.43-2.7 303.43-32.2 299.78-32.2 299.78-34.9 310.18-34.9 319.38-15.35 319.53-15.35 328.78-34.9 338.98-34.9 338.98-32.2 335.33-32.2 335.33-2.7 338.98-2.7 338.98 0 325.78 0 325.78-2.7 329.43-2.7 329.43-29.4 329.18-29.4 326.68-23.5 318.03-5.65 309.43-23.5 306.93-29.4 306.68-29.4 306.68-2.7 310.33-2.7 310.33 0 299.78 0ZM342.18 0L342.18-2.7 344.78-2.7 355.88-34.9 361.58-34.9 372.68-2.7 375.28-2.7 375.28 0 362.23 0 362.23-2.7 366.53-2.7 363.73-11.05 351.08-11.05 348.28-2.7 352.58-2.7 352.58 0 342.18 0ZM357.28-30.2L351.88-13.9 362.93-13.9 357.53-30.2 357.28-30.2ZM378.48 0L378.48-2.7 382.13-2.7 382.13-32.2 378.48-32.2 378.48-34.9 396.23-34.9Q398.53-34.9 400.4-34.35 402.28-33.8 403.6-32.68 404.93-31.55 405.65-29.83 406.38-28.1 406.38-25.8L406.38-25.8Q406.38-22.2 404.3-19.88 402.23-17.55 398.68-16.85L398.68-16.85 404.78-6Q405.78-4.25 406.95-3.48 408.13-2.7 409.88-2.7L409.88-2.7 410.23-2.7 410.23 0 406.38 0Q404.78 0 403.65-0.28 402.53-0.55 401.68-1.13 400.83-1.7 400.18-2.58 399.53-3.45 398.93-4.65L398.93-4.65 393.08-15.8 388.08-15.8 388.08-2.7 391.73-2.7 391.73 0 378.48 0ZM388.08-31.95L388.08-18.6 394.73-18.6Q397.38-18.6 398.8-20.1 400.23-21.6 400.23-24.1L400.23-24.1 400.23-26.45Q400.23-28.95 398.8-30.45 397.38-31.95 394.73-31.95L394.73-31.95 388.08-31.95ZM420.27 0L420.27-2.7 424.92-2.7 424.92-31.95 417.12-31.95 417.12-26.1 412.57-26.1 412.57-34.9 443.22-34.9 443.22-26.1 438.67-26.1 438.67-31.95 430.87-31.95 430.87-2.7 435.52-2.7 435.52 0 420.27 0Z" fill="#70706d" data-fill-palette-color="secondary"></path></g></svg></g></svg></g><g transform="matrix(1,0,0,1,0,39.23077231681735)"><svg viewBox="0 0 395.52 19.61418010849909" height="19.61418010849909" width="395.52"><g transform="matrix(1,0,0,1,0,0)"><svg width="395.52" viewBox="5.099999904632568 -38.849998474121094 993.1300048828125 49.25" height="19.61418010849909" data-palette-color="#70706d"><path d="M5.1 0L5.1-36.3 28.95-36.3 28.95-31.15 10.45-31.15 10.45-20.8 26.9-20.8 26.9-15.65 10.45-15.65 10.45-5.15 29.65-5.15 29.65 0 5.1 0ZM51.68 0.55L51.48 0.55 39.63-20.95 45.73-20.95 53.43-4.75 50.28-4.9 57.28-20.95 63.03-20.95 51.68 0.55ZM83.17 0.5L83.17 0.5Q79.52 0.5 76.92-0.93 74.32-2.35 72.92-4.88 71.52-7.4 71.52-10.65L71.52-10.65Q71.52-13.75 73.09-16.28 74.67-18.8 77.34-20.3 80.02-21.8 83.27-21.8L83.27-21.8Q87.47-21.8 90.24-19.35 93.02-16.9 93.97-12.5L93.97-12.5 76.92-6.6 75.72-9.6 89.37-14.5 88.32-13.85Q87.72-15.4 86.42-16.57 85.12-17.75 82.87-17.75L82.87-17.75Q81.07-17.75 79.64-16.88 78.22-16 77.39-14.48 76.57-12.95 76.57-10.9L76.57-10.9Q76.57-8.8 77.44-7.23 78.32-5.65 79.84-4.75 81.37-3.85 83.27-3.85L83.27-3.85Q84.62-3.85 85.84-4.35 87.07-4.85 88.17-5.6L88.17-5.6 90.52-1.8Q88.87-0.75 86.94-0.13 85.02 0.5 83.17 0.5ZM105.7-20.95L110.3-20.95 110.8-14.95 110.55-15.75Q111.4-17.65 112.95-19 114.5-20.35 116.17-21.08 117.85-21.8 119-21.8L119-21.8 118.75-16.7Q116.35-16.85 114.57-15.8 112.8-14.75 111.8-13 110.8-11.25 110.8-9.25L110.8-9.25 110.8 0 105.7 0 105.7-20.95ZM137.68 10.05L132.63 10.05 146.48-20.95 151.18-20.95 137.68 10.05ZM141.88-2.45L137.93 0.15 127.78-20.95 133.58-20.95 141.88-2.45ZM164.02-20.9L164.02-30.15 169.17-30.15 169.17-20.9 174.77-20.9 174.77-16.85 169.17-16.85 169.17 0 164.02 0 164.02-16.85 160.32-16.85 160.32-20.9 164.02-20.9ZM191.5 0L186.35 0 186.35-38.85 191.35-38.85 191.35-16.2 191.3-17.05Q192.35-19.1 194.5-20.45 196.65-21.8 199.65-21.8L199.65-21.8Q202.6-21.8 204.52-20.05 206.45-18.3 206.5-15.5L206.5-15.5 206.5 0 201.35 0 201.35-13.7Q201.3-15.3 200.4-16.32 199.5-17.35 197.6-17.4L197.6-17.4Q195.9-17.4 194.5-16.38 193.1-15.35 192.3-13.58 191.5-11.8 191.5-9.55L191.5-9.55 191.5 0ZM220.43 0L220.43-20.95 225.58-20.95 225.58 0 220.43 0ZM220.13-28.45L220.13-28.45Q220.13-29.65 221.08-30.45 222.03-31.25 223.13-31.25L223.13-31.25Q224.28-31.25 225.18-30.45 226.08-29.65 226.08-28.45L226.08-28.45Q226.08-27.25 225.18-26.48 224.28-25.7 223.13-25.7L223.13-25.7Q222.03-25.7 221.08-26.48 220.13-27.25 220.13-28.45ZM239.46-20.95L244.06-20.95 244.51-16.15 244.31-16.8Q245.36-19.05 247.56-20.43 249.76-21.8 252.76-21.8L252.76-21.8Q255.71-21.8 257.64-20.05 259.56-18.3 259.61-15.5L259.61-15.5 259.61 0 254.46 0 254.46-13.7Q254.41-15.3 253.51-16.32 252.61-17.35 250.71-17.4L250.71-17.4Q249.01-17.4 247.61-16.38 246.21-15.35 245.41-13.6 244.61-11.85 244.61-9.55L244.61-9.55 244.61 0 239.46 0 239.46-20.95ZM283.8 10.4L283.8 10.4Q281.35 10.4 279.55 9.85 277.75 9.3 276.32 8.33 274.9 7.35 273.6 6.25L273.6 6.25 276.65 2.7Q278.2 4.15 279.85 5.03 281.5 5.9 283.7 5.9L283.7 5.9Q285.9 5.9 287.47 5.18 289.05 4.45 289.9 3.15 290.75 1.85 290.75 0.05L290.75 0.05 290.8-5.4 291.15-4.4Q290.3-2.35 288-0.93 285.7 0.5 282.35 0.5L282.35 0.5Q279.5 0.5 277.07-0.95 274.65-2.4 273.2-4.9 271.75-7.4 271.75-10.55L271.75-10.55Q271.75-13.85 273.27-16.38 274.8-18.9 277.3-20.38 279.8-21.85 282.65-21.85L282.65-21.85Q285.45-21.85 287.65-20.78 289.85-19.7 290.95-18.1L290.95-18.1 290.65-17.25 291.2-20.95 295.95-20.95 295.95 0.1Q295.95 3 294.42 5.33 292.9 7.65 290.2 9.03 287.5 10.4 283.8 10.4ZM276.95-10.7L276.95-10.7Q276.95-8.75 277.85-7.15 278.75-5.55 280.32-4.63 281.9-3.7 283.85-3.7L283.85-3.7Q285.6-3.7 287-4.33 288.4-4.95 289.37-6.03 290.35-7.1 290.8-8.55L290.8-8.55 290.8-12.9Q290.35-14.35 289.35-15.38 288.35-16.4 286.95-17 285.55-17.6 283.85-17.6L283.85-17.6Q281.9-17.6 280.32-16.73 278.75-15.85 277.85-14.3 276.95-12.75 276.95-10.7ZM342.51 0L342.51-11.95 329.06-36.3 335.66-36.3 346.11-16.5 344.51-16.4 354.86-36.3 361.41-36.3 347.86-11.95 347.86 0 342.51 0ZM365.55-10.7L365.55-10.7Q365.55-13.85 367.05-16.38 368.55-18.9 371.2-20.35 373.85-21.8 377.25-21.8L377.25-21.8Q380.7-21.8 383.3-20.35 385.9-18.9 387.32-16.38 388.75-13.85 388.75-10.7L388.75-10.7Q388.75-7.55 387.32-5 385.9-2.45 383.3-0.98 380.7 0.5 377.2 0.5L377.2 0.5Q373.85 0.5 371.22-0.85 368.6-2.2 367.07-4.73 365.55-7.25 365.55-10.7ZM370.75-10.65L370.75-10.65Q370.75-8.7 371.6-7.13 372.45-5.55 373.9-4.63 375.35-3.7 377.15-3.7L377.15-3.7Q379-3.7 380.45-4.63 381.9-5.55 382.72-7.13 383.55-8.7 383.55-10.65L383.55-10.65Q383.55-12.6 382.72-14.15 381.9-15.7 380.45-16.65 379-17.6 377.15-17.6L377.15-17.6Q375.3-17.6 373.85-16.65 372.4-15.7 371.57-14.13 370.75-12.55 370.75-10.65ZM407.58 0.85L407.58 0.85Q404.68 0.85 402.83-0.9 400.98-2.65 400.88-5.4L400.88-5.4 400.88-20.95 406.03-20.95 406.03-7.25Q406.13-5.65 406.96-4.63 407.78-3.6 409.63-3.55L409.63-3.55Q411.33-3.55 412.66-4.58 413.98-5.6 414.76-7.38 415.53-9.15 415.53-11.45L415.53-11.45 415.53-20.95 420.68-20.95 420.68 0 416.03 0 415.63-4.85 415.83-4.05Q415.18-2.65 413.98-1.53 412.78-0.4 411.13 0.23 409.48 0.85 407.58 0.85ZM489.5 1.25L489.35 1.25 461.4-26.5 462.95-26 463.1 0 457.7 0 457.7-37.45 457.95-37.45 485.55-9.65 484.3-10 484.2-36.3 489.5-36.3 489.5 1.25ZM514.48 0.5L514.48 0.5Q510.83 0.5 508.23-0.93 505.63-2.35 504.23-4.88 502.83-7.4 502.83-10.65L502.83-10.65Q502.83-13.75 504.4-16.28 505.98-18.8 508.65-20.3 511.33-21.8 514.58-21.8L514.58-21.8Q518.78-21.8 521.55-19.35 524.33-16.9 525.28-12.5L525.28-12.5 508.23-6.6 507.03-9.6 520.68-14.5 519.63-13.85Q519.03-15.4 517.73-16.57 516.43-17.75 514.18-17.75L514.18-17.75Q512.38-17.75 510.95-16.88 509.53-16 508.7-14.48 507.88-12.95 507.88-10.9L507.88-10.9Q507.88-8.8 508.75-7.23 509.63-5.65 511.15-4.75 512.68-3.85 514.58-3.85L514.58-3.85Q515.93-3.85 517.15-4.35 518.38-4.85 519.48-5.6L519.48-5.6 521.83-1.8Q520.18-0.75 518.25-0.13 516.33 0.5 514.48 0.5ZM546.86 0.5L546.86 0.5Q543.21 0.5 540.61-0.93 538.01-2.35 536.61-4.88 535.21-7.4 535.21-10.65L535.21-10.65Q535.21-13.75 536.79-16.28 538.36-18.8 541.04-20.3 543.71-21.8 546.96-21.8L546.96-21.8Q551.16-21.8 553.94-19.35 556.71-16.9 557.66-12.5L557.66-12.5 540.61-6.6 539.41-9.6 553.06-14.5 552.01-13.85Q551.41-15.4 550.11-16.57 548.81-17.75 546.56-17.75L546.56-17.75Q544.76-17.75 543.34-16.88 541.91-16 541.09-14.48 540.26-12.95 540.26-10.9L540.26-10.9Q540.26-8.8 541.14-7.23 542.01-5.65 543.54-4.75 545.06-3.85 546.96-3.85L546.96-3.85Q548.31-3.85 549.54-4.35 550.76-4.85 551.86-5.6L551.86-5.6 554.21-1.8Q552.56-0.75 550.64-0.13 548.71 0.5 546.86 0.5ZM577.95 0.5L577.95 0.5Q575 0.5 572.65-0.88 570.3-2.25 568.95-4.8 567.6-7.35 567.6-10.75L567.6-10.75Q567.6-14.25 569.05-16.73 570.5-19.2 572.97-20.53 575.45-21.85 578.55-21.85L578.55-21.85Q580.95-21.85 583.12-20.88 585.3-19.9 586.5-18.15L586.5-18.15 586.35-16.4 586.35-38.85 591.45-38.85 591.45 0 586.3 0 586.3-4.95 586.85-3.6Q585.3-1.85 583.05-0.68 580.8 0.5 577.95 0.5ZM579.55-3.85L579.55-3.85Q581.3-3.85 582.65-4.45 584-5.05 584.95-6.18 585.9-7.3 586.3-8.8L586.3-8.8 586.3-13Q585.95-14.4 584.97-15.48 584-16.55 582.6-17.15 581.2-17.75 579.55-17.75L579.55-17.75Q577.7-17.75 576.17-16.88 574.65-16 573.72-14.45 572.8-12.9 572.8-10.85L572.8-10.85Q572.8-8.9 573.72-7.3 574.65-5.7 576.2-4.78 577.75-3.85 579.55-3.85ZM626.21-18.1L626.21-18.1Q626.21-21.85 627.64-25.2 629.06-28.55 631.61-31.15 634.16-33.75 637.51-35.23 640.86-36.7 644.71-36.7L644.71-36.7Q648.51-36.7 651.86-35.23 655.21-33.75 657.81-31.15 660.41-28.55 661.86-25.2 663.31-21.85 663.31-18.1L663.31-18.1Q663.31-14.25 661.86-10.9 660.41-7.55 657.84-5 655.26-2.45 651.89-1.03 648.51 0.4 644.71 0.4L644.71 0.4Q640.86 0.4 637.51-1 634.16-2.4 631.61-4.93 629.06-7.45 627.64-10.83 626.21-14.2 626.21-18.1ZM631.71-18.1L631.71-18.1Q631.71-15.3 632.74-12.88 633.76-10.45 635.56-8.63 637.36-6.8 639.74-5.78 642.11-4.75 644.86-4.75L644.86-4.75Q647.56-4.75 649.91-5.78 652.26-6.8 654.04-8.63 655.81-10.45 656.81-12.88 657.81-15.3 657.81-18.1L657.81-18.1Q657.81-20.9 656.79-23.33 655.76-25.75 653.99-27.6 652.21-29.45 649.84-30.5 647.46-31.55 644.76-31.55L644.76-31.55Q641.96-31.55 639.61-30.5 637.26-29.45 635.46-27.6 633.66-25.75 632.69-23.3 631.71-20.85 631.71-18.1ZM676.15-20.95L680.75-20.95 681.2-16.15 681-16.8Q682.05-19.05 684.25-20.43 686.45-21.8 689.45-21.8L689.45-21.8Q692.4-21.8 694.32-20.05 696.25-18.3 696.3-15.5L696.3-15.5 696.3 0 691.15 0 691.15-13.7Q691.1-15.3 690.2-16.32 689.3-17.35 687.4-17.4L687.4-17.4Q685.7-17.4 684.3-16.38 682.9-15.35 682.1-13.6 681.3-11.85 681.3-9.55L681.3-9.55 681.3 0 676.15 0 676.15-20.95ZM734.86 0L729.61 0 745.56-37.75 745.86-37.75 761.81 0 755.71 0 744.11-29.4 747.96-31.95 734.86 0ZM737.71-9L739.31-13.6 752.21-13.6 754.06-9 737.71-9ZM796.28-36.3L805.93-36.3Q811.43-36.3 814.6-34.05 817.78-31.8 817.78-27.15L817.78-27.15Q817.78-24.15 816.4-22 815.03-19.85 812.6-18.68 810.18-17.5 806.88-17.35L806.88-17.35 806.08-20.2Q809.93-20.1 812.95-18.88 815.98-17.65 817.75-15.48 819.53-13.3 819.53-10.3L819.53-10.3Q819.53-7.55 818.5-5.58 817.48-3.6 815.75-2.38 814.03-1.15 811.85-0.58 809.68 0 807.33 0L807.33 0 796.28 0 796.28-36.3ZM801.63-20.6L806.88-20.6Q809.68-20.6 810.98-22.2 812.28-23.8 812.28-26L812.28-26Q812.28-28.7 810.6-29.93 808.93-31.15 806.18-31.15L806.18-31.15 801.63-31.15 801.63-20.6ZM801.63-4.95L807.08-4.95Q809.03-4.95 810.6-5.53 812.18-6.1 813.1-7.28 814.03-8.45 814.03-10.25L814.03-10.25Q814.03-12.25 812.95-13.38 811.88-14.5 810.2-14.98 808.53-15.45 806.73-15.45L806.73-15.45 801.63-15.45 801.63-4.95ZM839.06 0.85L839.06 0.85Q836.16 0.85 834.31-0.9 832.46-2.65 832.36-5.4L832.36-5.4 832.36-20.95 837.51-20.95 837.51-7.25Q837.61-5.65 838.44-4.63 839.26-3.6 841.11-3.55L841.11-3.55Q842.81-3.55 844.14-4.58 845.46-5.6 846.24-7.38 847.01-9.15 847.01-11.45L847.01-11.45 847.01-20.95 852.16-20.95 852.16 0 847.51 0 847.11-4.85 847.31-4.05Q846.66-2.65 845.46-1.53 844.26-0.4 842.61 0.23 840.96 0.85 839.06 0.85ZM874.64 0.5L874.64 0.5Q871.69 0.5 869.34-0.88 866.99-2.25 865.64-4.8 864.29-7.35 864.29-10.75L864.29-10.75Q864.29-14.25 865.74-16.73 867.19-19.2 869.67-20.53 872.14-21.85 875.24-21.85L875.24-21.85Q877.64-21.85 879.82-20.88 881.99-19.9 883.19-18.15L883.19-18.15 883.04-16.4 883.04-38.85 888.14-38.85 888.14 0 882.99 0 882.99-4.95 883.54-3.6Q881.99-1.85 879.74-0.68 877.49 0.5 874.64 0.5ZM876.24-3.85L876.24-3.85Q877.99-3.85 879.34-4.45 880.69-5.05 881.64-6.18 882.59-7.3 882.99-8.8L882.99-8.8 882.99-13Q882.64-14.4 881.67-15.48 880.69-16.55 879.29-17.15 877.89-17.75 876.24-17.75L876.24-17.75Q874.39-17.75 872.87-16.88 871.34-16 870.42-14.45 869.49-12.9 869.49-10.85L869.49-10.85Q869.49-8.9 870.42-7.3 871.34-5.7 872.89-4.78 874.44-3.85 876.24-3.85ZM912.33 10.4L912.33 10.4Q909.88 10.4 908.08 9.85 906.28 9.3 904.85 8.33 903.43 7.35 902.13 6.25L902.13 6.25 905.18 2.7Q906.73 4.15 908.38 5.03 910.03 5.9 912.23 5.9L912.23 5.9Q914.43 5.9 916 5.18 917.58 4.45 918.43 3.15 919.28 1.85 919.28 0.05L919.28 0.05 919.33-5.4 919.68-4.4Q918.83-2.35 916.53-0.93 914.23 0.5 910.88 0.5L910.88 0.5Q908.03 0.5 905.6-0.95 903.18-2.4 901.73-4.9 900.28-7.4 900.28-10.55L900.28-10.55Q900.28-13.85 901.8-16.38 903.33-18.9 905.83-20.38 908.33-21.85 911.18-21.85L911.18-21.85Q913.98-21.85 916.18-20.78 918.38-19.7 919.48-18.1L919.48-18.1 919.18-17.25 919.73-20.95 924.48-20.95 924.48 0.1Q924.48 3 922.95 5.33 921.43 7.65 918.73 9.03 916.03 10.4 912.33 10.4ZM905.48-10.7L905.48-10.7Q905.48-8.75 906.38-7.15 907.28-5.55 908.85-4.63 910.43-3.7 912.38-3.7L912.38-3.7Q914.13-3.7 915.53-4.33 916.93-4.95 917.9-6.03 918.88-7.1 919.33-8.55L919.33-8.55 919.33-12.9Q918.88-14.35 917.88-15.38 916.88-16.4 915.48-17 914.08-17.6 912.38-17.6L912.38-17.6Q910.43-17.6 908.85-16.73 907.28-15.85 906.38-14.3 905.48-12.75 905.48-10.7ZM948.21 0.5L948.21 0.5Q944.56 0.5 941.96-0.93 939.36-2.35 937.96-4.88 936.56-7.4 936.56-10.65L936.56-10.65Q936.56-13.75 938.14-16.28 939.71-18.8 942.39-20.3 945.06-21.8 948.31-21.8L948.31-21.8Q952.51-21.8 955.29-19.35 958.06-16.9 959.01-12.5L959.01-12.5 941.96-6.6 940.76-9.6 954.41-14.5 953.36-13.85Q952.76-15.4 951.46-16.57 950.16-17.75 947.91-17.75L947.91-17.75Q946.11-17.75 944.69-16.88 943.26-16 942.44-14.48 941.61-12.95 941.61-10.9L941.61-10.9Q941.61-8.8 942.49-7.23 943.36-5.65 944.89-4.75 946.41-3.85 948.31-3.85L948.31-3.85Q949.66-3.85 950.89-4.35 952.11-4.85 953.21-5.6L953.21-5.6 955.56-1.8Q953.91-0.75 951.99-0.13 950.06 0.5 948.21 0.5ZM972.74-20.9L972.74-30.15 977.89-30.15 977.89-20.9 983.49-20.9 983.49-16.85 977.89-16.85 977.89 0 972.74 0 972.74-16.85 969.04-16.85 969.04-20.9 972.74-20.9ZM992.63-2.85L992.63-2.85Q992.63-4.05 993.5-4.88 994.38-5.7 995.48-5.7L995.48-5.7Q996.48-5.7 997.35-4.88 998.23-4.05 998.23-2.85L998.23-2.85Q998.23-1.55 997.35-0.78 996.48 0 995.48 0L995.48 0Q994.38 0 993.5-0.78 992.63-1.55 992.63-2.85L992.63-2.85Z" opacity="1" transform="matrix(1,0,0,1,0,0)" fill="#70706d" class="undefined-text-1" data-fill-palette-color="secondary" id="text-1"></path></svg></g></svg></g></svg></g></svg></g><g><svg viewBox="0 0 66.85156974726773 60.992793188840494" height="60.992793188840494" width="66.85156974726773"><g><svg xmlns="http://www.w3.org/2000/svg" xmlns:xlink="http://www.w3.org/1999/xlink" version="1.1" x="0" y="0" viewBox="0.0002867411822080612 2.1040000915527344 48.00071716308594 43.794002532958984" enable-background="new 0 0 48 48" xml:space="preserve" width="66.85156974726773" height="60.992793188840494" class="icon-icon-0" data-fill-palette-color="accent" id="icon-0"><g fill="#000000" data-fill-palette-color="accent"><path d="M44.598 19.372H28.225v-6.226c0-0.812-0.658-1.469-1.47-1.469h-5.907c-0.811 0-1.469 0.658-1.469 1.469v6.226h-2.088c-1.875 0-3.4 1.525-3.4 3.4v5.253H48v-5.253C48 20.897 46.474 19.372 44.598 19.372zM25.286 19.372h-2.969v-4.756h2.969V19.372zM31.803 26.266h-1.716c-0.541 0-0.979-0.439-0.979-0.98 0-0.541 0.438-0.979 0.979-0.979h1.716c0.541 0 0.979 0.438 0.979 0.979C32.782 25.826 32.344 26.266 31.803 26.266z" fill="#000000" data-fill-palette-color="accent"></path><path d="M13.891 36.77v2.549 5.107c0 0.813 0.658 1.471 1.469 1.471 0.812 0 1.47-0.658 1.47-1.471v-1.754c0.152 0.021 0.305 0.047 0.462 0.047h12.674V29.984H13.891V36.77z" fill="#000000" data-fill-palette-color="accent"></path><path d="M31.924 42.719h12.674c0.159 0 0.311-0.025 0.464-0.047v1.754c0 0.813 0.658 1.471 1.469 1.471 0.812 0 1.47-0.658 1.47-1.471v-5.107V36.77v-6.785H31.924V42.719z" fill="#000000" data-fill-palette-color="accent"></path><path d="M11.114 42.957H9.029V15.875h5.109c0.287 0 0.561-0.126 0.746-0.346 0.188-0.219 0.268-0.508 0.222-0.792L13.175 2.926c-0.077-0.474-0.487-0.822-0.967-0.822H2.911c-0.48 0-0.89 0.348-0.967 0.822L0.013 14.738c-0.046 0.284 0.034 0.573 0.221 0.792 0.186 0.219 0.459 0.346 0.746 0.346h5.11v27.082H4.005c-0.812 0-1.47 0.658-1.47 1.469 0 0.813 0.658 1.471 1.47 1.471h7.109c0.812 0 1.47-0.658 1.47-1.471C12.584 43.615 11.926 42.957 11.114 42.957z" fill="#000000" data-fill-palette-color="accent"></path></g></svg></g></svg></g></svg></g></svg><rect width="395.52" height="51.34221814019674" fill="none" stroke="none" visibility="hidden"></rect></g></svg></g></svg>