<?xml version="1.0" encoding="UTF-8"?><svg id="Layer_2" xmlns="http://www.w3.org/2000/svg" viewBox="0 0 244.09 241.7"><defs><style>.cls-1{fill:#fff;}</style></defs><g id="icon-0"><rect width="244.09" height="241.7"/><g><path class="cls-1" d="M213.48,93.4h-72.55v-27.59c0-3.6-2.92-6.51-6.51-6.51h-26.17c-3.59,0-6.51,2.92-6.51,6.51v27.59h-9.25c-8.31,0-15.06,6.76-15.06,15.06v23.28H228.55v-23.28c0-8.31-6.76-15.06-15.07-15.06Zm-85.57,0h-13.16v-21.07h13.16v21.07Zm28.88,30.55h-7.6c-2.4,0-4.34-1.95-4.34-4.34s1.94-4.34,4.34-4.34h7.6c2.4,0,4.34,1.94,4.34,4.34,0,2.39-1.94,4.34-4.34,4.34Z"/><path class="cls-1" d="M77.42,170.49v33.92c0,3.6,2.92,6.52,6.51,6.52s6.51-2.92,6.51-6.52v-7.77c.67,.09,1.35,.21,2.05,.21h56.16v-56.43H77.42v30.07Z"/><path class="cls-1" d="M157.32,196.85h56.16c.7,0,1.38-.11,2.06-.21v7.77c0,3.6,2.92,6.52,6.51,6.52s6.51-2.92,6.51-6.52v-63.99h-71.23v56.42Z"/><path class="cls-1" d="M65.12,197.91h-9.24V77.91h22.64c1.27,0,2.49-.56,3.31-1.53,.83-.97,1.19-2.25,.98-3.51l-8.56-52.33c-.34-2.1-2.16-3.64-4.28-3.64H28.77c-2.13,0-3.94,1.54-4.28,3.64l-8.56,52.34c-.2,1.26,.15,2.54,.98,3.51,.82,.97,2.03,1.53,3.31,1.53h22.64v120h-9.24c-3.6,0-6.51,2.92-6.51,6.51s2.92,6.52,6.51,6.52h31.5c3.6,0,6.51-2.92,6.51-6.52,0-3.6-2.92-6.51-6.51-6.51Z"/></g></g></svg>