<?xml version="1.0" encoding="utf-8"?>
<!-- Generator: Adobe Illustrator 26.5.0, SVG Export Plug-In . SVG Version: 6.00 Build 0)  -->
<svg version="1.1" id="icon-0" xmlns:svgjs="http://svgjs.dev/svgjs"
	 xmlns="http://www.w3.org/2000/svg" xmlns:xlink="http://www.w3.org/1999/xlink" x="0px" y="0px" viewBox="0 0 2000 257"
	 style="enable-background:new 0 0 2000 257;" xml:space="preserve">
<style type="text/css">
	.st0{fill:#313D4D;}
	.st1{fill:#FD8311;}
	.st2{display:none;fill:#313D4D;}
</style>
<g transform="matrix(1,0,0,1,-1.2120421356814859,0.8622557805393285)">
	<g id="tight-bounds" transform="matrix(1,0,0,1,0.2399843428649433,-0.17110901643209786)">
		<g>
			<g transform="matrix(1,0,0,1,0,0)">
				<g id="text-0">
					<path class="st0" d="M321.7,136.2V126h13.8V14.1h-13.8V3.9h101.3v33.4h-17.3V15.1h-47.6v49.9h32.2V51.5h12.5v38.1h-12.5V76.1
						h-32.2V126h17.6v10.2H321.7z M506.2,138.5L506.2,138.5c-9.4,0-17.3-1-23.9-3c-6.6-1.9-11.9-5.1-16.1-9.4
						c-4.2-4.3-7.2-9.8-9.1-16.5c-1.9-6.7-2.8-14.8-2.8-24.3l0,0V14.1h-13.8V3.9h50.2v10.2h-13.8v73.2c0,6.6,0.5,12.3,1.6,17.1
						c1.1,4.8,2.8,8.8,5.2,12c2.4,3.2,5.6,5.6,9.6,7.2c4,1.6,9,2.4,14.9,2.4l0,0c11.9,0,20.3-3.1,25.1-9.4
						c4.9-6.2,7.3-15.9,7.3-29.1l0,0V14.1h-13.8V3.9h40v10.2h-13.8v70.2c0,9.1-0.9,17-2.6,23.8c-1.7,6.8-4.4,12.4-8,17
						c-3.7,4.6-8.5,7.9-14.4,10.1C521.8,137.4,514.6,138.5,506.2,138.5z M583.7,136.2V126h13.8V14.1h-13.8V3.9H651
						c5.8,0,11.1,0.7,15.8,2.1c4.7,1.4,8.8,3.5,12.1,6.3c3.4,2.9,6,6.5,7.8,10.8c1.8,4.4,2.7,9.5,2.7,15.3l0,0
						c0,9.1-2.6,16.6-7.9,22.5c-5.2,5.9-12.3,9.7-21.3,11.5l0,0l23.1,41.1c2.5,4.4,5.3,7.6,8.3,9.6c3,2,6.6,3,11.1,3l0,0h1.4v10.2
						h-14.6c-4,0-7.5-0.4-10.3-1.1c-2.9-0.7-5.3-1.8-7.5-3.2c-2.2-1.4-4.1-3.3-5.7-5.5c-1.7-2.2-3.2-4.8-4.7-7.9l0,0L639,76.3h-19
						V126H634v10.2H583.7z M620.1,15.1v50.6h25.3c6.7,0,11.8-1.9,15.4-5.7s5.4-8.8,5.4-15.2l0,0v-8.9c0-6.3-1.8-11.4-5.4-15.2
						c-3.6-3.8-8.8-5.7-15.4-5.7l0,0H620.1z M716.2,136.2V126h13.8V14.1h-13.8V3.9h40.2l63.9,101.1h0.9V14.1h-13.8V3.9h40v10.2
						h-13.8v122.1h-19.2L743.3,23.8h-0.9V126h13.8v10.2H716.2z M864.9,136.2V126h13.8V14.1h-13.8V3.9h50.2v10.2h-13.8V126h13.8v10.2
						H864.9z M959.7,136.2V126h17.6V15.1h-29.6v22.2h-17.3V3.9h116.2v33.4h-17.3V15.1h-29.6V126h17.6v10.2H959.7z M1126.7,138.5
						L1126.7,138.5c-9.4,0-17.3-1-23.9-3c-6.6-1.9-11.9-5.1-16.1-9.4s-7.2-9.8-9.1-16.5c-1.9-6.7-2.8-14.8-2.8-24.3l0,0V14.1h-13.8
						V3.9h50.2v10.2h-13.8v73.2c0,6.6,0.5,12.3,1.6,17.1c1.1,4.8,2.8,8.8,5.2,12c2.4,3.2,5.6,5.6,9.6,7.2c4,1.6,9,2.4,14.9,2.4l0,0
						c11.9,0,20.3-3.1,25.1-9.4c4.9-6.2,7.3-15.9,7.3-29.1l0,0V14.1h-13.8V3.9h40v10.2h-13.8v70.2c0,9.1-0.9,17-2.6,23.8
						c-1.7,6.8-4.4,12.4-8,17c-3.7,4.6-8.5,7.9-14.4,10.1C1142.4,137.4,1135.2,138.5,1126.7,138.5z M1204.3,136.2V126h13.8V14.1
						h-13.8V3.9h67.3c5.8,0,11.1,0.7,15.9,2.1c4.7,1.4,8.8,3.5,12.1,6.3c3.3,2.9,5.9,6.5,7.8,10.8c1.8,4.4,2.7,9.5,2.7,15.3l0,0
						c0,9.1-2.6,16.6-7.9,22.5c-5.3,5.9-12.4,9.7-21.4,11.5l0,0l23.1,41.1c2.5,4.4,5.3,7.6,8.3,9.6c3,2,6.6,3,11.1,3l0,0h1.3v10.2
						h-14.6c-4,0-7.5-0.4-10.3-1.1c-2.9-0.7-5.4-1.8-7.5-3.2c-2.1-1.4-4-3.3-5.7-5.5c-1.6-2.2-3.2-4.8-4.7-7.9l0,0l-22.2-42.3h-19
						V126h13.8v10.2H1204.3z M1240.7,15.1v50.6h25.2c6.7,0,11.9-1.9,15.5-5.7c3.6-3.8,5.4-8.8,5.4-15.2l0,0v-8.9
						c0-6.3-1.8-11.4-5.4-15.2c-3.6-3.8-8.8-5.7-15.5-5.7l0,0H1240.7z M1336.8,136.2V126h13.8V14.1h-13.8V3.9h101.3v33.4h-17.3V15.1
						h-47.6v47h32.2V48.6h12.5v38.1h-12.5V73.3h-32.2V125h49.5v-24.7h17.3v35.8H1336.8z"/>
					<path class="st1" d="M1449.2,136.2V126h13.8V14.1h-13.8V3.9h39.4l34.9,74.1h0.6l35.1-74.1h38.7v10.2h-13.8V126h13.8v10.2h-50.1
						V126h13.8V24.7h-0.9l-9.5,22.4l-32.8,67.7l-32.6-67.7l-9.5-22.4h-0.9V126h13.8v10.2H1449.2z M1610,136.2V126h9.9L1662,3.9h21.6
						l42.1,122.1h9.9v10.2h-49.5V126h16.3l-10.6-31.7h-48l-10.6,31.7h16.3v10.2H1610z M1667.3,21.7l-20.5,61.8h41.9l-20.5-61.8
						H1667.3z M1747.7,136.2V126h13.8V14.1h-13.8V3.9h67.3c5.8,0,11.1,0.7,15.8,2.1c4.8,1.4,8.8,3.5,12.1,6.3
						c3.4,2.9,6,6.5,7.8,10.8c1.8,4.4,2.8,9.5,2.8,15.3l0,0c0,9.1-2.6,16.6-7.9,22.5c-5.2,5.9-12.3,9.7-21.3,11.5l0,0l23.1,41.1
						c2.5,4.4,5.3,7.6,8.2,9.6c3,2,6.7,3,11.1,3l0,0h1.3v10.2h-14.6c-4,0-7.5-0.4-10.4-1.1c-2.8-0.7-5.3-1.8-7.5-3.2
						c-2.1-1.4-4-3.3-5.7-5.5c-1.6-2.2-3.2-4.8-4.7-7.9l0,0l-22.2-42.3h-19V126h13.8v10.2H1747.7z M1784.1,15.1v50.6h25.2
						c6.7,0,11.8-1.9,15.4-5.7c3.6-3.8,5.4-8.8,5.4-15.2l0,0v-8.9c0-6.3-1.8-11.4-5.4-15.2c-3.6-3.8-8.7-5.7-15.4-5.7l0,0H1784.1z
						 M1906.2,136.2V126h17.6V15.1h-29.6v22.2H1877V3.9h116.2v33.4H1976V15.1h-29.6V126h17.6v10.2H1906.2z"/>
				</g>
			</g>
			<g transform="matrix(1,0,0,1,0,39.23077231681735)">
				<g transform="matrix(1,0,0,1,0,0)">
					<path id="text-1" class="st0" d="M318.6,196.7v-61.3h40.3v8.7h-31.3v17.5h27.8v8.7h-27.8V188H360v8.7H318.6z M397.3,197.6h-0.3
						l-20-36.3h10.3l13,27.4l-5.3-0.3l11.8-27.1h9.7L397.3,197.6z M450.5,197.5L450.5,197.5c-4.1,0-7.6-0.8-10.6-2.4
						c-2.9-1.6-5.2-3.8-6.8-6.7c-1.6-2.8-2.4-6.1-2.4-9.7l0,0c0-3.5,0.9-6.7,2.7-9.5c1.8-2.8,4.2-5.1,7.2-6.8c3-1.7,6.4-2.5,10-2.5
						l0,0c4.7,0,8.7,1.4,11.8,4.1c3.1,2.8,5.2,6.6,6.3,11.6l0,0l-28.8,10l-2-5.1l23.1-8.3l-1.8,1.1c-0.7-1.7-1.7-3.3-3.2-4.6
						c-1.5-1.3-3.5-2-6-2l0,0c-2,0-3.8,0.5-5.5,1.5c-1.6,1-2.9,2.3-3.8,4.1c-0.9,1.7-1.4,3.7-1.4,6l0,0c0,2.4,0.5,4.4,1.5,6.2
						c1,1.8,2.3,3.2,4.1,4.2c1.7,1,3.7,1.5,5.8,1.5l0,0c1.5,0,3-0.3,4.3-0.8c1.4-0.6,2.7-1.3,3.9-2.1l0,0l4,6.4
						c-1.9,1.2-3.9,2.1-6,2.8C454.7,197.2,452.5,197.5,450.5,197.5z M488.5,161.3h7.8l0.8,10.1l-0.4-1.4c1-2.1,2.3-4,4.1-5.5
						c1.7-1.5,3.6-2.7,5.4-3.5c1.9-0.8,3.5-1.2,4.8-1.2l0,0l-0.4,8.6c-2.7-0.2-5.1,0.3-7.1,1.5c-2,1.2-3.6,2.8-4.7,4.7
						c-1.1,2-1.7,4.1-1.7,6.3l0,0v15.6h-8.6V161.3z M542.5,213.7H534l23.4-52.4h7.9L542.5,213.7z M549.6,192.5l-6.7,4.4l-17.1-35.6
						h9.8L549.6,192.5z M587,161.4v-15.6h8.7v15.6h9.5v6.8h-9.5v28.5H587v-28.5h-6.3v-6.8H587z M633.5,196.7h-8.7V131h8.4v38.3
						l-0.1-1.4c1.2-2.3,3-4.2,5.4-5.7c2.4-1.5,5.3-2.3,8.7-2.3l0,0c3.3,0,6.1,1,8.2,3c2.2,2,3.3,4.5,3.3,7.7l0,0v26.2h-8.7v-23.1
						c-0.1-1.8-0.6-3.3-1.6-4.4c-1-1.2-2.6-1.8-4.7-1.8l0,0c-1.9,0-3.7,0.6-5.2,1.7c-1.6,1.2-2.8,2.7-3.7,4.7
						c-0.9,2-1.4,4.3-1.4,6.8l0,0V196.7z M682.3,196.7v-35.4h8.7v35.4H682.3z M681.8,148.6L681.8,148.6c0-1.4,0.5-2.5,1.6-3.4
						c1.1-0.9,2.2-1.4,3.5-1.4l0,0c1.3,0,2.4,0.5,3.5,1.4c1,0.9,1.5,2,1.5,3.4l0,0c0,1.4-0.5,2.5-1.5,3.3c-1,0.9-2.2,1.3-3.5,1.3
						l0,0c-1.2,0-2.4-0.4-3.5-1.3C682.4,151.1,681.8,150,681.8,148.6z M714.5,161.3h7.8l0.8,8.1l-0.3-1.1c1.2-2.5,3-4.6,5.5-6.1
						c2.5-1.5,5.4-2.3,8.8-2.3l0,0c3.3,0,6.1,1,8.2,3c2.2,2,3.3,4.5,3.3,7.7l0,0v26.2h-8.7v-23.1c-0.1-1.8-0.6-3.3-1.6-4.4
						c-1-1.2-2.6-1.8-4.7-1.8l0,0c-1.9,0-3.7,0.6-5.2,1.7c-1.6,1.2-2.8,2.7-3.7,4.7s-1.4,4.3-1.4,6.8l0,0v16.1h-8.7V161.3z
						 M789.4,214.2L789.4,214.2c-2.8,0-5.2-0.3-7.2-0.9c-2-0.6-3.8-1.5-5.5-2.6c-1.6-1.1-3.1-2.3-4.6-3.5l0,0l5.2-6
						c1.7,1.6,3.5,2.9,5.4,3.9c1.9,1,4,1.5,6.5,1.5l0,0c2.5,0,4.6-0.4,6.4-1.2c1.8-0.8,3.1-2,4.1-3.4c1-1.5,1.4-3.2,1.4-5.2l0,0
						l0.1-9.2l0.6,1.7c-1,2.3-2.7,4.3-5.3,5.9c-2.6,1.6-5.8,2.4-9.5,2.4l0,0c-3.2,0-6.2-0.8-8.9-2.4c-2.7-1.6-4.9-3.9-6.5-6.7
						c-1.6-2.8-2.4-6-2.4-9.5l0,0c0-3.7,0.9-7,2.6-9.8c1.7-2.8,4-5.1,6.8-6.8c2.8-1.7,5.8-2.5,9-2.5l0,0c3.2,0,6,0.6,8.4,1.8
						c2.5,1.2,4.3,2.7,5.6,4.5l0,0l-0.5,1.4l0.9-6.3h8v35.6c0,3.3-0.9,6.2-2.6,8.8c-1.7,2.6-4.1,4.7-7.1,6.3
						C797.2,213.5,793.6,214.2,789.4,214.2z M777.8,178.6L777.8,178.6c0,2.2,0.5,4.2,1.5,6c1,1.8,2.4,3.2,4.2,4.3
						c1.8,1,3.8,1.6,6,1.6l0,0c2,0,3.7-0.4,5.3-1.1c1.6-0.7,2.9-1.7,4-2.9c1.1-1.2,1.9-2.6,2.4-4.3l0,0v-7.3c-0.5-1.6-1.3-3-2.4-4.2
						c-1.1-1.1-2.5-2.1-4.1-2.7c-1.6-0.7-3.3-1-5.2-1l0,0c-2.2,0-4.2,0.5-6,1.5c-1.8,1-3.2,2.4-4.2,4.1S777.8,176.3,777.8,178.6z
						 M888.6,196.7v-20.2l-22.7-41.1H877l17.7,33.4l-2.7,0.2l17.5-33.6h11.1l-22.9,41.1v20.2H888.6z M927.5,178.6L927.5,178.6
						c0-3.5,0.8-6.7,2.5-9.6c1.7-2.8,4-5.1,7-6.7s6.4-2.4,10.2-2.4l0,0c3.9,0,7.3,0.8,10.2,2.4s5.2,3.9,6.8,6.7
						c1.6,2.8,2.4,6,2.4,9.6l0,0c0,3.5-0.8,6.8-2.4,9.6c-1.6,2.9-3.9,5.1-6.8,6.8c-2.9,1.7-6.4,2.5-10.3,2.5l0,0
						c-3.8,0-7.1-0.8-10.1-2.3c-3-1.5-5.3-3.7-7-6.6C928.3,185.8,927.5,182.5,927.5,178.6z M936.3,178.7L936.3,178.7
						c0,2.2,0.5,4.2,1.4,5.9c1,1.8,2.3,3.2,3.9,4.2c1.6,1,3.5,1.6,5.5,1.6l0,0c2.1,0,3.9-0.5,5.6-1.6c1.6-1,2.9-2.4,3.8-4.2
						c0.9-1.8,1.4-3.8,1.4-5.9l0,0c0-2.2-0.5-4.2-1.4-5.9c-0.9-1.7-2.2-3.2-3.8-4.2c-1.6-1.1-3.5-1.6-5.6-1.6l0,0
						c-2.1,0-3.9,0.5-5.6,1.6c-1.6,1.1-2.9,2.5-3.9,4.3C936.7,174.6,936.3,176.5,936.3,178.7z M998.5,198.1L998.5,198.1
						c-3.3,0-5.9-1-8-3c-2.1-2-3.2-4.5-3.3-7.6l0,0v-26.3h8.7v23.1c0.1,1.8,0.6,3.3,1.6,4.4c0.9,1.2,2.4,1.8,4.5,1.8l0,0
						c1.9,0,3.6-0.6,5.1-1.7c1.5-1.1,2.7-2.7,3.5-4.7c0.9-2,1.3-4.3,1.3-6.9l0,0v-16h8.7v35.4h-7.9l-0.7-8.2l0.3,1.4
						c-0.7,1.6-1.8,3-3.1,4.3c-1.4,1.3-3,2.3-4.8,3C1002.6,197.8,1000.6,198.1,998.5,198.1z M1136.9,198.8h-0.3l-47.2-46.9l2.6,0.8
						l0.3,43.9h-9.1v-63.3h0.4l46.6,47l-2.1-0.6l-0.2-44.4h9V198.8z M1179.1,197.5L1179.1,197.5c-4.1,0-7.6-0.8-10.6-2.4
						c-2.9-1.6-5.2-3.8-6.8-6.7c-1.6-2.8-2.4-6.1-2.4-9.7l0,0c0-3.5,0.9-6.7,2.7-9.5c1.8-2.8,4.2-5.1,7.2-6.8c3-1.7,6.4-2.5,10-2.5
						l0,0c4.7,0,8.7,1.4,11.8,4.1c3.1,2.8,5.2,6.6,6.3,11.6l0,0l-28.8,10l-2-5.1l23.1-8.3l-1.8,1.1c-0.7-1.7-1.7-3.3-3.2-4.6
						c-1.5-1.3-3.5-2-6-2l0,0c-2,0-3.8,0.5-5.5,1.5c-1.6,1-2.9,2.3-3.8,4.1c-0.9,1.7-1.4,3.7-1.4,6l0,0c0,2.4,0.5,4.4,1.5,6.2
						c1,1.8,2.3,3.2,4.1,4.2c1.7,1,3.7,1.5,5.8,1.5l0,0c1.5,0,3-0.3,4.3-0.8c1.4-0.6,2.7-1.3,3.9-2.1l0,0l4,6.4
						c-1.9,1.2-3.9,2.1-6,2.8C1183.3,197.2,1181.2,197.5,1179.1,197.5z M1233.8,197.5L1233.8,197.5c-4.1,0-7.6-0.8-10.6-2.4
						c-2.9-1.6-5.2-3.8-6.8-6.7c-1.6-2.8-2.4-6.1-2.4-9.7l0,0c0-3.5,0.9-6.7,2.7-9.5c1.8-2.8,4.2-5.1,7.2-6.8c3-1.7,6.3-2.5,10-2.5
						l0,0c4.7,0,8.7,1.4,11.8,4.1c3.1,2.8,5.2,6.6,6.3,11.6l0,0l-28.8,10l-2-5.1l23.1-8.3l-1.8,1.1c-0.7-1.7-1.7-3.3-3.2-4.6
						c-1.5-1.3-3.5-2-6-2l0,0c-2,0-3.8,0.5-5.4,1.5c-1.6,1-2.9,2.3-3.8,4.1c-0.9,1.7-1.4,3.7-1.4,6l0,0c0,2.4,0.5,4.4,1.5,6.2
						c1,1.8,2.3,3.2,4.1,4.2c1.7,1,3.6,1.5,5.8,1.5l0,0c1.5,0,3-0.3,4.4-0.8c1.4-0.6,2.7-1.3,3.9-2.1l0,0l4,6.4
						c-1.9,1.2-3.9,2.1-6,2.8C1238,197.2,1235.9,197.5,1233.8,197.5z M1286.3,197.5L1286.3,197.5c-3.3,0-6.3-0.8-9-2.3
						c-2.6-1.5-4.7-3.8-6.3-6.6c-1.5-2.9-2.3-6.2-2.3-10.1l0,0c0-3.9,0.8-7.3,2.4-10.1c1.6-2.8,3.8-4.9,6.6-6.4
						c2.8-1.5,5.9-2.2,9.4-2.2l0,0c2.7,0,5.3,0.5,7.7,1.6c2.5,1.1,4.4,2.6,5.7,4.6l0,0l-0.3,3V131h8.6v65.6h-8.7v-8.4l0.9,2.3
						c-1.7,2-3.9,3.6-6.4,4.9C1292.4,196.9,1289.5,197.5,1286.3,197.5z M1289,190.2L1289,190.2c2,0,3.7-0.3,5.2-1
						c1.5-0.7,2.8-1.6,3.9-2.9c1.1-1.3,1.8-2.7,2.3-4.4l0,0v-7.1c-0.4-1.6-1.1-3-2.2-4.2c-1.1-1.2-2.4-2.1-4-2.8
						c-1.6-0.7-3.3-1-5.2-1l0,0c-2.1,0-4,0.5-5.7,1.5c-1.7,1-3.1,2.4-4.1,4.1c-1,1.7-1.6,3.8-1.6,6.1l0,0c0,2.2,0.5,4.2,1.6,6
						c1,1.8,2.4,3.2,4.2,4.3C1285.1,189.6,1287,190.2,1289,190.2z M1367.8,166.1L1367.8,166.1c0-4.2,0.8-8.2,2.4-12
						c1.6-3.8,3.8-7.1,6.7-10.1s6.2-5.2,10-6.9c3.8-1.7,7.8-2.5,12.2-2.5l0,0c4.3,0,8.3,0.8,12.1,2.5c3.8,1.7,7.1,4,10.1,6.9
						c2.9,2.9,5.2,6.3,6.8,10.1c1.6,3.8,2.4,7.8,2.4,12l0,0c0,4.3-0.8,8.4-2.4,12.2c-1.6,3.8-3.9,7.1-6.8,10
						c-2.9,2.9-6.3,5.1-10.1,6.7c-3.8,1.6-7.8,2.4-12.1,2.4l0,0c-4.3,0-8.4-0.8-12.2-2.4c-3.8-1.6-7.1-3.8-10-6.6
						c-2.9-2.8-5.1-6.2-6.7-10C1368.6,174.6,1367.8,170.5,1367.8,166.1z M1377.1,166.1L1377.1,166.1c0,3.2,0.6,6.1,1.7,8.8
						c1.1,2.7,2.7,5.1,4.8,7.2c2,2.1,4.4,3.7,7.1,4.8c2.7,1.2,5.6,1.7,8.6,1.7l0,0c3,0,5.9-0.6,8.5-1.7c2.6-1.1,5-2.8,7-4.8
						c2-2,3.6-4.4,4.7-7.2c1.1-2.7,1.7-5.7,1.7-8.8l0,0c0-3.2-0.6-6.1-1.7-8.8c-1.2-2.7-2.7-5.1-4.7-7.2c-2-2.1-4.3-3.7-7-4.9
						c-2.7-1.2-5.5-1.8-8.6-1.8l0,0c-3.2,0-6.1,0.6-8.7,1.8c-2.6,1.2-5,2.8-7,4.9c-2,2.1-3.6,4.5-4.7,7.3
						C1377.7,160.1,1377.1,163,1377.1,166.1z M1452.2,161.3h7.8l0.8,8.1l-0.3-1.1c1.2-2.5,3-4.6,5.5-6.1c2.5-1.5,5.4-2.3,8.8-2.3
						l0,0c3.3,0,6.1,1,8.2,3c2.2,2,3.3,4.5,3.3,7.7l0,0v26.2h-8.7v-23.1c-0.1-1.8-0.6-3.3-1.6-4.4c-1-1.2-2.6-1.8-4.7-1.8l0,0
						c-1.9,0-3.7,0.6-5.2,1.7c-1.6,1.2-2.8,2.7-3.7,4.7s-1.4,4.3-1.4,6.8l0,0v16.1h-8.7V161.3z M1551.4,196.7h-8.9l26.9-63.8h0.5
						l26.9,63.8h-10.3L1567,147l6.5-4.3L1551.4,196.7z M1556.2,181.5l2.7-7.8h21.8l3.1,7.8H1556.2z M1655.1,135.4h16.3
						c6.2,0,11.1,1.3,14.6,3.8c3.6,2.5,5.4,6.4,5.4,11.7l0,0c0,3.4-0.8,6.3-2.3,8.7c-1.5,2.4-3.7,4.3-6.4,5.6
						c-2.7,1.3-5.9,2.1-9.7,2.2l0,0l-1.4-4.8c4.3,0.1,8.2,0.9,11.6,2.2c3.4,1.4,6.1,3.3,8.1,5.7c2,2.5,3,5.4,3,8.8l0,0
						c0,3.1-0.6,5.8-1.7,8c-1.1,2.2-2.7,4-4.6,5.4c-1.9,1.4-4.1,2.4-6.6,3c-2.4,0.7-5,1-7.6,1l0,0h-18.7V135.4z M1664.2,161.9h8.9
						c3.2,0,5.5-0.9,6.9-2.7c1.5-1.8,2.2-3.9,2.2-6.4l0,0c0-3-0.9-5.3-2.8-6.6c-1.9-1.4-4.4-2.1-7.5-2.1l0,0h-7.7V161.9z
						 M1664.2,188.3h9.2c2.2,0,4.2-0.3,5.9-1c1.8-0.6,3.2-1.6,4.2-3c1-1.3,1.6-3,1.6-5l0,0c0-2.3-0.6-4-1.8-5.3
						c-1.2-1.3-2.8-2.2-4.6-2.7c-1.9-0.5-3.8-0.8-5.9-0.8l0,0h-8.6V188.3z M1727.4,198.1L1727.4,198.1c-3.3,0-5.9-1-8-3
						s-3.2-4.5-3.3-7.6l0,0v-26.3h8.7v23.1c0.1,1.8,0.6,3.3,1.6,4.4c0.9,1.2,2.4,1.8,4.5,1.8l0,0c1.9,0,3.6-0.6,5.1-1.7
						c1.5-1.1,2.7-2.7,3.5-4.7c0.9-2,1.3-4.3,1.3-6.9l0,0v-16h8.7v35.4h-7.9l-0.7-8.2l0.3,1.4c-0.7,1.6-1.8,3-3.1,4.3
						c-1.4,1.3-3,2.3-4.8,3C1731.6,197.8,1729.6,198.1,1727.4,198.1z M1787.5,197.5L1787.5,197.5c-3.3,0-6.3-0.8-9-2.3
						c-2.6-1.5-4.7-3.8-6.3-6.6c-1.5-2.9-2.3-6.2-2.3-10.1l0,0c0-3.9,0.8-7.3,2.4-10.1c1.6-2.8,3.8-4.9,6.6-6.4
						c2.8-1.5,5.9-2.2,9.4-2.2l0,0c2.7,0,5.3,0.5,7.7,1.6c2.4,1.1,4.3,2.6,5.7,4.6l0,0l-0.3,3V131h8.6v65.6h-8.7v-8.4l0.9,2.3
						c-1.7,2-3.9,3.6-6.4,4.9C1793.6,196.9,1790.7,197.5,1787.5,197.5z M1790.2,190.2L1790.2,190.2c2,0,3.7-0.3,5.2-1
						c1.5-0.7,2.8-1.6,3.9-2.9c1.1-1.3,1.8-2.7,2.3-4.4l0,0v-7.1c-0.4-1.6-1.1-3-2.2-4.2c-1.1-1.2-2.4-2.1-4-2.8
						c-1.6-0.7-3.3-1-5.2-1l0,0c-2.1,0-4,0.5-5.7,1.5c-1.7,1-3.1,2.4-4.1,4.1c-1,1.7-1.6,3.8-1.6,6.1l0,0c0,2.2,0.5,4.2,1.6,6
						c1,1.8,2.4,3.2,4.2,4.3C1786.3,189.6,1788.2,190.2,1790.2,190.2z M1851.2,214.2L1851.2,214.2c-2.8,0-5.2-0.3-7.2-0.9
						c-2-0.6-3.8-1.5-5.5-2.6c-1.6-1.1-3.1-2.3-4.6-3.5l0,0l5.2-6c1.7,1.6,3.5,2.9,5.4,3.9c1.9,1,4,1.5,6.5,1.5l0,0
						c2.5,0,4.6-0.4,6.4-1.2c1.8-0.8,3.1-2,4.1-3.4c1-1.5,1.4-3.2,1.4-5.2l0,0l0.1-9.2l0.6,1.7c-1,2.3-2.7,4.3-5.3,5.9
						c-2.6,1.6-5.8,2.4-9.5,2.4l0,0c-3.2,0-6.2-0.8-8.9-2.4c-2.7-1.6-4.9-3.9-6.5-6.7c-1.6-2.8-2.4-6-2.4-9.5l0,0
						c0-3.7,0.9-7,2.6-9.8c1.7-2.8,4-5.1,6.8-6.8c2.8-1.7,5.8-2.5,9-2.5l0,0c3.2,0,6,0.6,8.4,1.8c2.5,1.2,4.3,2.7,5.6,4.5l0,0
						l-0.5,1.4l0.9-6.3h8v35.6c0,3.3-0.9,6.2-2.6,8.8c-1.7,2.6-4.1,4.7-7.1,6.3C1859,213.5,1855.4,214.2,1851.2,214.2z
						 M1839.6,178.6L1839.6,178.6c0,2.2,0.5,4.2,1.5,6c1,1.8,2.4,3.2,4.2,4.3c1.8,1,3.8,1.6,6,1.6l0,0c2,0,3.7-0.4,5.3-1.1
						c1.6-0.7,2.9-1.7,4-2.9c1.1-1.2,1.9-2.6,2.4-4.3l0,0v-7.3c-0.5-1.6-1.3-3-2.4-4.2c-1.1-1.1-2.5-2.1-4.1-2.7
						c-1.6-0.7-3.3-1-5.2-1l0,0c-2.2,0-4.2,0.5-6,1.5c-1.8,1-3.2,2.4-4.2,4.1C1840.1,174.3,1839.6,176.3,1839.6,178.6z
						 M1911.8,197.5L1911.8,197.5c-4.1,0-7.6-0.8-10.6-2.4c-2.9-1.6-5.2-3.8-6.8-6.7c-1.6-2.8-2.4-6.1-2.4-9.7l0,0
						c0-3.5,0.9-6.7,2.7-9.5c1.8-2.8,4.2-5.1,7.2-6.8c3-1.7,6.3-2.5,10-2.5l0,0c4.7,0,8.7,1.4,11.8,4.1c3.1,2.8,5.2,6.6,6.3,11.6
						l0,0l-28.8,10l-2-5.1l23.1-8.3l-1.8,1.1c-0.7-1.7-1.7-3.3-3.2-4.6c-1.5-1.3-3.5-2-6-2l0,0c-2,0-3.8,0.5-5.4,1.5
						c-1.6,1-2.9,2.3-3.8,4.1c-0.9,1.7-1.4,3.7-1.4,6l0,0c0,2.4,0.5,4.4,1.5,6.2c1,1.8,2.3,3.2,4.1,4.2c1.7,1,3.6,1.5,5.8,1.5l0,0
						c1.5,0,3-0.3,4.4-0.8c1.4-0.6,2.7-1.3,3.9-2.1l0,0l4,6.4c-1.9,1.2-3.9,2.1-6,2.8C1916,197.2,1913.9,197.5,1911.8,197.5z
						 M1953.3,161.4v-15.6h8.7v15.6h9.5v6.8h-9.5v28.5h-8.7v-28.5h-6.3v-6.8H1953.3z M1986.9,191.9L1986.9,191.9
						c0-1.4,0.5-2.5,1.5-3.4c1-0.9,2.1-1.4,3.3-1.4l0,0c1.1,0,2.2,0.5,3.2,1.4c1,0.9,1.5,2.1,1.5,3.4l0,0c0,1.5-0.5,2.6-1.5,3.5
						c-1,0.9-2,1.3-3.2,1.3l0,0c-1.2,0-2.4-0.4-3.3-1.3C1987.3,194.5,1986.9,193.3,1986.9,191.9L1986.9,191.9z"/>
				</g>
			</g>
		</g>
		<g>
			<g>
				<g>
					<path class="st0" d="M266.7,101.3h-96.7V64.5c0-4.8-3.9-8.7-8.7-8.7h-34.9c-4.8,0-8.7,3.9-8.7,8.7v36.8h-12.3
						c-11.1,0-20.1,9-20.1,20.1v31h201.5v-31C286.8,110.3,277.8,101.3,266.7,101.3z M152.6,101.3H135V73.2h17.5V101.3z M191.1,142.1
						h-10.1c-3.2,0-5.8-2.6-5.8-5.8s2.6-5.8,5.8-5.8h10.1c3.2,0,5.8,2.6,5.8,5.8C196.9,139.5,194.3,142.1,191.1,142.1z"/>
					<path class="st0" d="M85.3,204.1v15.1v30.2c0,4.8,3.9,8.7,8.7,8.7c4.8,0,8.7-3.9,8.7-8.7V239c0.9,0.1,1.8,0.3,2.7,0.3h74.9V164
						h-95V204.1z"/>
					<path class="st0" d="M191.8,239.3h74.9c0.9,0,1.8-0.1,2.7-0.3v10.4c0,4.8,3.9,8.7,8.7,8.7c4.8,0,8.7-3.9,8.7-8.7v-30.2v-15.1
						V164h-95V239.3z"/>
					<path class="st0" d="M68.9,240.7H56.5v-160h30.2c1.7,0,3.3-0.7,4.4-2c1.1-1.3,1.6-3,1.3-4.7L81,4.2c-0.5-2.8-2.9-4.9-5.7-4.9
						H20.4c-2.8,0-5.3,2.1-5.7,4.9L3.3,73.9c-0.3,1.7,0.2,3.4,1.3,4.7c1.1,1.3,2.7,2,4.4,2h30.2v160H26.9c-4.8,0-8.7,3.9-8.7,8.7
						c0,4.8,3.9,8.7,8.7,8.7h42c4.8,0,8.7-3.9,8.7-8.7C77.5,244.5,73.7,240.7,68.9,240.7z"/>
				</g>
			</g>
		</g>
		<rect x="3.2" y="-0.7" class="st2" width="1993.1" height="258.7"/>
	</g>
</g>
</svg>
